<svg xmlns="http://www.w3.org/2000/svg" xmlns:xlink="http://www.w3.org/1999/xlink" width="30" height="30" viewBox="0 0 30 30">
  <defs>
    <clipPath id="clip-Zeichenfläche_7">
      <rect width="30" height="30"/>
    </clipPath>
  </defs>
  <g id="Zeichenfläche_7" data-name="Zeichenfläche – 7" clip-path="url(#clip-Zeichenfläche_7)">
    <path id="icons8-trash-can" d="M12.927,2a1.276,1.276,0,0,0-1.27,1.27v.847H8.335a.383.383,0,0,0-.133,0H7.423a.423.423,0,1,0,0,.847h.423V20.2a1.276,1.276,0,0,0,1.27,1.27H20.123a1.276,1.276,0,0,0,1.27-1.27V4.963h.423a.423.423,0,1,0,0-.847h-.776a.423.423,0,0,0-.138,0h-3.32V3.27A1.276,1.276,0,0,0,16.313,2Zm0,.847h3.387a.422.422,0,0,1,.423.423v.847H12.5V3.27A.422.422,0,0,1,12.927,2.847ZM8.693,4.963h3.316a.423.423,0,0,0,.138,0h4.942a.423.423,0,0,0,.138,0h3.32V20.2a.422.422,0,0,1-.423.423H9.117a.422.422,0,0,1-.423-.423Zm3.38,2.111a.423.423,0,0,0-.417.429V18.087a.423.423,0,1,0,.847,0V7.5a.423.423,0,0,0-.43-.429Zm2.54,0A.423.423,0,0,0,14.2,7.5V18.087a.423.423,0,1,0,.847,0V7.5a.423.423,0,0,0-.43-.429Zm2.54,0a.423.423,0,0,0-.417.429V18.087a.423.423,0,1,0,.847,0V7.5a.423.423,0,0,0-.43-.429Z" transform="translate(0.38 3.263)" fill="#fff"/>
  </g>
</svg>
