<svg xmlns="http://www.w3.org/2000/svg" xmlns:xlink="http://www.w3.org/1999/xlink" width="30" height="30" viewBox="0 0 30 30">
  <defs>
    <clipPath id="clip-Zeichenfläche_3">
      <rect width="30" height="30"/>
    </clipPath>
  </defs>
  <g id="Zeichenfläche_3" data-name="Zeichenfläche – 3" clip-path="url(#clip-Zeichenfläche_3)">
    <g id="qr-code-svgrepo-com" transform="translate(2.5 2.5)">
      <rect id="Rechteck_239" data-name="Rechteck 239" width="0.987" height="1.974" transform="translate(14.805 8.883)"/>
      <rect id="Rechteck_240" data-name="Rechteck 240" height="1.974" transform="translate(16.779 8.883)"/>
      <rect id="Rechteck_241" data-name="Rechteck 241" width="0.987" height="0.987" transform="translate(14.805 11.844)"/>
      <rect id="Rechteck_242" data-name="Rechteck 242" height="0.987" transform="translate(16.779 11.844)"/>
      <rect id="Rechteck_243" data-name="Rechteck 243" width="0.987" height="0.987" transform="translate(11.844 12.831)"/>
      <rect id="Rechteck_244" data-name="Rechteck 244" width="0.987" height="0.987" transform="translate(9.87 20.727)"/>
      <rect id="Rechteck_245" data-name="Rechteck 245" height="0.987" transform="translate(16.779 12.831)"/>
      <rect id="Rechteck_246" data-name="Rechteck 246" width="0.987" height="0.987" transform="translate(14.805 14.805)"/>
      <rect id="Rechteck_247" data-name="Rechteck 247" height="0.987" transform="translate(16.779 14.805)"/>
      <path id="Pfad_75" data-name="Pfad 75" d="M.781.781H1.953V0H.391A.391.391,0,0,0,0,.391V1.953H.781Z"/>
      <path id="Pfad_76" data-name="Pfad 76" d="M60.563,0H59V.781h1.172V1.953h.781V.391A.391.391,0,0,0,60.563,0Z" transform="translate(-35.953)"/>
      <path id="Pfad_77" data-name="Pfad 77" d="M.781,59H0v1.562a.391.391,0,0,0,.391.391H1.953v-.781H.781Z" transform="translate(0 -35.953)"/>
      <path id="Pfad_78" data-name="Pfad 78" d="M60.172,60.172H59v.781h1.562a.391.391,0,0,0,.391-.391V59h-.781Z" transform="translate(-35.953 -35.953)"/>
      <path id="Pfad_79" data-name="Pfad 79" d="M4,4.391V9.078a.391.391,0,0,0,.391.391H9.078a.391.391,0,0,0,.391-.391V4.391A.391.391,0,0,0,9.078,4H4.391A.391.391,0,0,0,4,4.391Zm.781.391H8.688V8.688H4.781Z" transform="translate(-2.437 -2.437)"/>
      <path id="Pfad_80" data-name="Pfad 80" d="M9.953,8H8.391A.391.391,0,0,0,8,8.391V9.953a.391.391,0,0,0,.391.391H9.953a.391.391,0,0,0,.391-.391V8.391A.391.391,0,0,0,9.953,8ZM9.563,9.563H8.781V8.781h.781Z" transform="translate(-4.875 -4.875)"/>
      <path id="Pfad_81" data-name="Pfad 81" d="M46.391,9.469h4.687a.391.391,0,0,0,.391-.391V4.391A.391.391,0,0,0,51.078,4H46.391A.391.391,0,0,0,46,4.391V9.078A.391.391,0,0,0,46.391,9.469Zm.391-4.688h3.906V8.688H46.781Z" transform="translate(-28.031 -2.437)"/>
      <path id="Pfad_82" data-name="Pfad 82" d="M51.953,8H50.391A.391.391,0,0,0,50,8.391V9.953a.391.391,0,0,0,.391.391h1.562a.391.391,0,0,0,.391-.391V8.391A.391.391,0,0,0,51.953,8Zm-.391,1.563h-.781V8.781h.781Z" transform="translate(-30.469 -4.875)"/>
      <path id="Pfad_83" data-name="Pfad 83" d="M9.078,46H4.391A.391.391,0,0,0,4,46.391v4.687a.391.391,0,0,0,.391.391H9.078a.391.391,0,0,0,.391-.391V46.391A.391.391,0,0,0,9.078,46Zm-.391,4.688H4.781V46.781H8.688Z" transform="translate(-2.437 -28.031)"/>
      <path id="Pfad_84" data-name="Pfad 84" d="M8.391,52.344H9.953a.391.391,0,0,0,.391-.391V50.391A.391.391,0,0,0,9.953,50H8.391A.391.391,0,0,0,8,50.391v1.562A.391.391,0,0,0,8.391,52.344Zm.391-1.562h.781v.781H8.781Z" transform="translate(-4.875 -30.469)"/>
      <path id="Pfad_85" data-name="Pfad 85" d="M38.516,11.687H35.781V7H35v5.078a.391.391,0,0,0,.391.391h3.125Z" transform="translate(-21.328 -4.266)"/>
      <rect id="Rechteck_248" data-name="Rechteck 248" width="1.974" height="0.987" transform="translate(8.883 4.935)"/>
      <rect id="Rechteck_249" data-name="Rechteck 249" width="2.961" height="0.987" transform="translate(9.87 2.961)"/>
      <rect id="Rechteck_250" data-name="Rechteck 250" height="2.961" transform="translate(1.974 7.896)"/>
      <path id="Pfad_86" data-name="Pfad 86" d="M11.906,25H8v.781h3.516v1.562H12.3V25.391A.391.391,0,0,0,11.906,25Z" transform="translate(-4.875 -15.234)"/>
      <rect id="Rechteck_251" data-name="Rechteck 251" height="0.987" transform="translate(3.948 7.896)"/>
      <rect id="Rechteck_252" data-name="Rechteck 252" width="0.987" height="2.961" transform="translate(7.896 6.909)"/>
      <rect id="Rechteck_253" data-name="Rechteck 253" width="3.948" height="0.987" transform="translate(7.896 10.857)"/>
      <path id="Pfad_87" data-name="Pfad 87" d="M57.953,29h-.781v3.906H56v.781h1.563a.391.391,0,0,0,.391-.391Z" transform="translate(-34.125 -17.672)"/>
      <rect id="Rechteck_254" data-name="Rechteck 254" width="0.987" height="0.987" transform="translate(9.87 6.909)"/>
      <rect id="Rechteck_255" data-name="Rechteck 255" height="2.961" transform="translate(1.974 12.831)"/>
      <rect id="Rechteck_256" data-name="Rechteck 256" width="2.961" transform="translate(1.974 16.779)"/>
      <path id="Pfad_88" data-name="Pfad 88" d="M47.563,24.953h.781V23.391A.391.391,0,0,0,47.953,23H46v.781h1.563Z" transform="translate(-28.031 -14.016)"/>
      <rect id="Rechteck_257" data-name="Rechteck 257" height="0.987" transform="translate(3.948 12.831)"/>
      <rect id="Rechteck_258" data-name="Rechteck 258" width="0.987" height="2.961" transform="translate(7.896 12.831)"/>
      <rect id="Rechteck_259" data-name="Rechteck 259" width="2.961" transform="translate(7.896 16.779)"/>
      <rect id="Rechteck_260" data-name="Rechteck 260" width="3.948" height="0.987" transform="translate(2.961 14.805)"/>
      <rect id="Rechteck_261" data-name="Rechteck 261" width="0.987" height="0.987" transform="translate(7.896 20.727)"/>
      <rect id="Rechteck_262" data-name="Rechteck 262" width="2.961" height="0.987" transform="translate(7.896 18.753)"/>
      <path id="Pfad_89" data-name="Pfad 89" d="M29.3,40.344V38.391A.391.391,0,0,0,28.906,38H25v.781h3.516v1.563Z" transform="translate(-15.234 -23.156)"/>
      <rect id="Rechteck_263" data-name="Rechteck 263" width="0.987" transform="translate(9.87 12.831)"/>
      <rect id="Rechteck_264" data-name="Rechteck 264" width="0.987" height="0.987" transform="translate(5.922 12.831)"/>
      <rect id="Rechteck_265" data-name="Rechteck 265" width="0.987" height="2.961" transform="translate(22.701 20.727)"/>
      <rect id="Rechteck_266" data-name="Rechteck 266" width="1.974" height="0.987" transform="translate(20.727 22.701)"/>
      <rect id="Rechteck_267" data-name="Rechteck 267" width="0.987" height="0.987" transform="translate(20.727 20.727)"/>
      <path id="Pfad_90" data-name="Pfad 90" d="M53.687,43.391A.391.391,0,0,0,53.3,43H49v.781h3.906v2.344h.781Z" transform="translate(-29.859 -26.203)"/>
      <path id="Pfad_91" data-name="Pfad 91" d="M40.687,52.344V50.391A.391.391,0,0,0,40.3,50H36v.781h3.906v1.563Z" transform="translate(-21.937 -30.469)"/>
      <rect id="Rechteck_268" data-name="Rechteck 268" width="2.961" transform="translate(19.74 18.753)"/>
      <rect id="Rechteck_269" data-name="Rechteck 269" width="2.961" height="0.987" transform="translate(7.896 22.701)"/>
      <rect id="Rechteck_270" data-name="Rechteck 270" width="0.987" height="3.948" transform="translate(11.844 19.74)"/>
      <rect id="Rechteck_271" data-name="Rechteck 271" width="0.987" height="0.987" transform="translate(12.831 17.766)"/>
      <path id="Pfad_92" data-name="Pfad 92" d="M46.391,31.125h1.953v-.781H46.781V28H46v2.734A.391.391,0,0,0,46.391,31.125Z" transform="translate(-28.031 -17.063)"/>
      <rect id="Rechteck_272" data-name="Rechteck 272" width="1.974" height="0.987" transform="translate(19.74 11.844)"/>
      <rect id="Rechteck_273" data-name="Rechteck 273" width="1.974" height="0.987" transform="translate(20.727 7.896)"/>
      <rect id="Rechteck_274" data-name="Rechteck 274" width="0.987" height="1.974" transform="translate(22.701 7.896)"/>
      <rect id="Rechteck_275" data-name="Rechteck 275" width="0.987" height="0.987" transform="translate(20.727 9.87)"/>
      <path id="Pfad_93" data-name="Pfad 93" d="M39,8.469h1.563a.391.391,0,0,0,.391-.391V3h-.781V7.688H39Z" transform="translate(-23.766 -1.828)"/>
      <path id="Pfad_94" data-name="Pfad 94" d="M22.781,3.781h5.859V3h-6.25A.391.391,0,0,0,22,3.391V5.344h.781Z" transform="translate(-13.406 -1.828)"/>
      <path id="Pfad_95" data-name="Pfad 95" d="M25,18.516h2.734a.391.391,0,0,0,.391-.391V15h-.781v2.734H25Z" transform="translate(-15.234 -9.141)"/>
      <rect id="Rechteck_276" data-name="Rechteck 276" width="0.987" height="1.974" transform="translate(12.831 8.883)"/>
      <rect id="Rechteck_277" data-name="Rechteck 277" width="2.961" height="0.987" transform="translate(13.818 20.727)"/>
      <rect id="Rechteck_278" data-name="Rechteck 278" width="3.948" height="0.987" transform="translate(13.818 22.701)"/>
      <path id="Pfad_96" data-name="Pfad 96" d="M48.781,53.734H48v.781h1.172a.391.391,0,0,0,.391-.391V51h-.781Z" transform="translate(-29.25 -31.078)"/>
      <rect id="Rechteck_279" data-name="Rechteck 279" width="0.987" transform="translate(5.922 16.779)"/>
      <rect id="Rechteck_280" data-name="Rechteck 280" width="1.974" transform="translate(14.805 16.779)"/>
      <rect id="Rechteck_281" data-name="Rechteck 281" width="0.987" height="0.987" transform="translate(17.766 14.805)"/>
      <rect id="Rechteck_282" data-name="Rechteck 282" width="0.987" height="0.987" transform="translate(17.766 16.779)"/>
      <rect id="Rechteck_283" data-name="Rechteck 283" width="1.974" height="0.987" transform="translate(14.805 17.766)"/>
      <rect id="Rechteck_284" data-name="Rechteck 284" width="0.987" height="0.987" transform="translate(19.74 14.805)"/>
      <rect id="Rechteck_285" data-name="Rechteck 285" width="1.974" height="0.987" transform="translate(20.727 12.831)"/>
      <rect id="Rechteck_286" data-name="Rechteck 286" width="1.974" height="0.987" transform="translate(13.818 12.831)"/>
      <rect id="Rechteck_287" data-name="Rechteck 287" width="0.987" height="1.974" transform="translate(12.831 10.857)"/>
    </g>
  </g>
</svg>
