<svg id="Komponente_34_1" data-name="Komponente 34 – 1" xmlns="http://www.w3.org/2000/svg" width="435.788" height="364.528" viewBox="0 0 435.788 364.528">
  <path id="Differenzmenge_32" data-name="Differenzmenge 32" d="M427.83,400H72.17a40.7,40.7,0,0,1-11.161-1.537,39.06,39.06,0,0,1-9.735-4.279A40.5,40.5,0,0,1,32.107,359.6a39.064,39.064,0,0,1,1.531-10.523A40.708,40.708,0,0,1,38.25,338.8L216.08,54.272a40.593,40.593,0,0,1,6.77-8.225,39.245,39.245,0,0,1,8.236-5.875,40.407,40.407,0,0,1,37.828,0,39.249,39.249,0,0,1,8.236,5.875,40.6,40.6,0,0,1,6.771,8.225L461.75,338.8a40.711,40.711,0,0,1,4.612,10.279,39.065,39.065,0,0,1,1.531,10.523,40.5,40.5,0,0,1-19.167,34.582,39.061,39.061,0,0,1-9.735,4.279A40.7,40.7,0,0,1,427.83,400ZM250,304a16,16,0,1,0,11.314,4.686A15.9,15.9,0,0,0,250,304Zm0-162a13,13,0,0,0-13,13V265a13,13,0,1,0,26,0V155a13,13,0,0,0-13-13Z" transform="translate(-32.106 -35.472)" fill="#fff"/>
</svg>
