<svg id="Gruppe_43" data-name="Gruppe 43" xmlns="http://www.w3.org/2000/svg" width="26" height="26" viewBox="0 0 26 26">
  <rect id="Rechteck_570" data-name="Rechteck 570" width="26" height="26" fill="none"/>
  <circle id="Ellipse_38" data-name="Ellipse 38" cx="1.214" cy="1.214" r="1.214" transform="translate(8.901 8.092)" fill="#292f61"/>
  <path id="Pfad_105" data-name="Pfad 105" d="M49.8,32H33.618A1.618,1.618,0,0,0,32,33.618V46.565h0V49.8a1.618,1.618,0,0,0,1.618,1.618H49.8A1.618,1.618,0,0,0,51.42,49.8V33.618A1.618,1.618,0,0,0,49.8,32Zm-2.9,8.092a1.628,1.628,0,0,0-2.286,0l-4.521,4.521L38,42.519a1.628,1.628,0,0,0-2.286,0l-2.094,2.094V33.618H49.8v9.376Z" transform="translate(-28.763 -28.763)" fill="#292f61"/>
</svg>
