<svg xmlns="http://www.w3.org/2000/svg" xmlns:xlink="http://www.w3.org/1999/xlink" width="292.464" height="62.962" viewBox="0 0 292.464 62.962">
  <defs>
    <clipPath id="clip-path">
      <rect width="292.464" height="62.962" fill="none"/>
    </clipPath>
    <linearGradient id="linear-gradient" x1="0.069" y1="0.86" x2="0.936" y2="0.144" gradientUnits="objectBoundingBox">
      <stop offset="0" stop-color="#dc692a"/>
      <stop offset="0.511" stop-color="#8f1d4a"/>
      <stop offset="1" stop-color="#449879"/>
    </linearGradient>
  </defs>
  <g id="Wiederholungsraster_2" data-name="Wiederholungsraster 2" clip-path="url(#clip-path)">
    <g transform="translate(2302.026 -347.519)">
      <g id="Komponente_33_1" data-name="Komponente 33 – 1" transform="translate(-2302.026 347.519)">
        <path id="Schnittmenge_6" data-name="Schnittmenge 6" d="M275.783,76.65a13.75,13.75,0,0,1-5.535-3.834l.756-.7a13.761,13.761,0,0,0,5.157,3.564,18.251,18.251,0,0,0,7.317,1.458A17.05,17.05,0,0,0,290.2,76a8.58,8.58,0,0,0,3.888-3.051,7.517,7.517,0,0,0,1.269-4.239,6.83,6.83,0,0,0-1.3-4.347,8.767,8.767,0,0,0-3.456-2.592,28.757,28.757,0,0,0-4.7-1.566q-2.538-.621-5.1-1.269a24.381,24.381,0,0,1-4.725-1.7,8.926,8.926,0,0,1-3.456-2.889,8.16,8.16,0,0,1-1.3-4.806,8.735,8.735,0,0,1,1.323-4.644,9.5,9.5,0,0,1,4.1-3.51,16.563,16.563,0,0,1,7.209-1.35,19.408,19.408,0,0,1,5.967.945,16.449,16.449,0,0,1,5,2.511l-.594.864a15.979,15.979,0,0,0-5.022-2.484,18.737,18.737,0,0,0-5.292-.81,16.025,16.025,0,0,0-6.534,1.161A8.576,8.576,0,0,0,273.65,45.3a7.726,7.726,0,0,0-1.242,4.293,6.922,6.922,0,0,0,1.3,4.4,8.767,8.767,0,0,0,3.456,2.592,28.515,28.515,0,0,0,4.725,1.566q2.565.621,5.1,1.3a25.866,25.866,0,0,1,4.7,1.728,9.122,9.122,0,0,1,3.456,2.835,7.808,7.808,0,0,1,1.3,4.7,8.606,8.606,0,0,1-1.35,4.644,9.457,9.457,0,0,1-4.212,3.483,17.576,17.576,0,0,1-7.344,1.323A20.021,20.021,0,0,1,275.783,76.65Zm-40.77-2.484q-3.915-4-3.915-11.988V40.2h1.08V62.124q0,7.56,3.537,11.286t9.963,3.726q6.426,0,9.963-3.726t3.537-11.286V40.2h1.08V62.178q0,7.992-3.915,11.988t-10.665,4Q238.928,78.162,235.013,74.166ZM195.35,78V40.2H219.7v1.026H196.43V58.29h20.844v1.026H196.43V76.974h24.084V78Zm-44.6,0V40.2h14.31a21.454,21.454,0,0,1,10.476,2.457A17.761,17.761,0,0,1,182.5,49.38a18.958,18.958,0,0,1,2.484,9.72,18.958,18.958,0,0,1-2.484,9.72,17.761,17.761,0,0,1-6.966,6.723A21.454,21.454,0,0,1,165.056,78Zm1.08-1.026h13.122a20.7,20.7,0,0,0,10.044-2.322,16.572,16.572,0,0,0,6.588-6.345A18.082,18.082,0,0,0,183.9,59.1a18.082,18.082,0,0,0-2.322-9.207,16.572,16.572,0,0,0-6.588-6.345,20.7,20.7,0,0,0-10.044-2.322H151.826ZM131.414,78l-2.532-6.588H114.507L111.974,78H99.014l16.524-37.8h12.528L144.59,78ZM132.71,71.412Zm-7.356-9.18-3.66-9.521-3.66,9.521ZM85.352,78l-.092-17.242L77.036,74.6H71.42L63.212,61.355V78H51.6V40.2H62.078L74.4,60.318,86.378,40.2H96.854L96.962,78ZM36.374,78l-2.532-6.588H19.467L16.934,78H3.974L20.5,40.2H33.026L49.55,78ZM37.67,71.412Zm-7.356-9.18-3.66-9.521-3.66,9.521Z" transform="translate(-3.974 -40.038)" fill="url(#linear-gradient)"/>
        <text id="FALKO-PV" transform="translate(236.464 58.962)" fill="#292f61" font-size="16" font-family="Montserrat-Black, Montserrat" font-weight="800" letter-spacing="0.2em"><tspan x="-55.432" y="0">FALKO-PV</tspan></text>
      </g>
    </g>
  </g>
</svg>
