<svg id="Logos" xmlns="http://www.w3.org/2000/svg" viewBox="0 0 111.97 56.29"><defs><style>.cls-1{fill:#007987;}.cls-2{fill:#00444c;}.cls-3{fill:#fff;}</style></defs><title>BG-EBF_Wortmarke_2018_PH5.2_LS4-Auswahl</title><rect class="cls-1" x="0.26" y="13.92" width="111.59" height="42.25"/><path class="cls-1" d="M133.19,35.8v42H21.86v-42H133.19m.25-.25H21.61v42.5H133.44V35.55Z" transform="translate(-21.47 -21.76)"/><path class="cls-2" d="M21.47,22a15.17,15.17,0,0,1,2.27-.17,3.81,3.81,0,0,1,2.53.66A2.08,2.08,0,0,1,27,24.13a2.19,2.19,0,0,1-1.49,2.06v0a2.09,2.09,0,0,1,1.15,1.58,16.13,16.13,0,0,0,.64,2.29H25.74a10.42,10.42,0,0,1-.55-1.94c-.23-1.07-.62-1.41-1.48-1.43H23V30.1H21.47ZM23,25.63h.89c1,0,1.64-.53,1.64-1.35S24.86,23,23.89,23A4,4,0,0,0,23,23Z" transform="translate(-21.47 -21.76)"/><path class="cls-2" d="M30.18,27.77l-.7,2.33H27.93l2.63-8.21h1.91l2.67,8.21H33.53l-.74-2.33Zm2.35-1.13-.64-2c-.16-.5-.3-1.06-.42-1.53h0c-.12.47-.24,1-.39,1.53l-.63,2Z" transform="translate(-21.47 -21.76)"/><path class="cls-2" d="M37.83,21.89v3.29H41.3V21.89h1.5V30.1H41.3V26.48H37.83V30.1h-1.5V21.89Z" transform="translate(-21.47 -21.76)"/><path class="cls-2" d="M51.49,26.75c0-1.06-.1-2.34-.09-3.44h0c-.27,1-.61,2.1-1,3.14L49.19,30H48l-1.1-3.5c-.32-1.05-.61-2.17-.83-3.19h0c0,1.07-.09,2.37-.15,3.49l-.18,3.3h-1.4l.55-8.21h2L48,25.19c.29,1,.55,1.94.76,2.85h0c.22-.89.5-1.9.82-2.86l1.13-3.29h2l.47,8.21H51.65Z" transform="translate(-21.47 -21.76)"/><path class="cls-2" d="M59.28,26.46H56.19v2.41h3.45V30.1h-5V21.89h4.77v1.23H56.19v2.12h3.09Z" transform="translate(-21.47 -21.76)"/><path class="cls-2" d="M61,30.1V21.89h1.7l2.12,3.52a22.32,22.32,0,0,1,1.4,2.75h0c-.1-1.09-.14-2.15-.14-3.41V21.89h1.39V30.1H66l-2.14-3.6a30.68,30.68,0,0,1-1.47-2.84h0c.06,1.06.08,2.14.08,3.5V30.1Z" transform="translate(-21.47 -21.76)"/><path class="cls-2" d="M69.29,22a13.82,13.82,0,0,1,2.29-.17A3.68,3.68,0,0,1,74,22.5a2.32,2.32,0,0,1,.81,1.82,2.49,2.49,0,0,1-.71,1.86,3.6,3.6,0,0,1-2.59.88,4.91,4.91,0,0,1-.73,0V30.1H69.29Zm1.49,3.83a3.49,3.49,0,0,0,.73.06c1.12,0,1.8-.55,1.8-1.51S72.68,23,71.64,23a4,4,0,0,0-.86.07Z" transform="translate(-21.47 -21.76)"/><path class="cls-2" d="M76.15,22a15.13,15.13,0,0,1,2.26-.17,3.84,3.84,0,0,1,2.54.66,2.08,2.08,0,0,1,.7,1.64,2.2,2.2,0,0,1-1.48,2.06v0a2.1,2.1,0,0,1,1.14,1.58A17.21,17.21,0,0,0,82,30.1H80.41a11.32,11.32,0,0,1-.55-1.94c-.23-1.07-.62-1.41-1.47-1.43h-.76V30.1H76.15Zm1.48,3.63h.89c1,0,1.65-.53,1.65-1.35S79.53,23,78.56,23a4,4,0,0,0-.93.08Z" transform="translate(-21.47 -21.76)"/><path class="cls-2" d="M90.41,25.91c0,2.75-1.67,4.32-3.93,4.32s-3.78-1.76-3.78-4.17,1.58-4.3,3.9-4.3S90.41,23.57,90.41,25.91ZM84.28,26c0,1.67.84,3,2.28,3s2.27-1.34,2.27-3.06c0-1.54-.77-3-2.27-3S84.28,24.34,84.28,26Z" transform="translate(-21.47 -21.76)"/><path class="cls-2" d="M98.33,29.72a8,8,0,0,1-2.65.47,4.42,4.42,0,0,1-3.21-1.1,4.08,4.08,0,0,1-1.15-3c0-2.59,1.85-4.26,4.57-4.26a5.33,5.33,0,0,1,2.18.39l-.33,1.2a4.5,4.5,0,0,0-1.86-.35,2.75,2.75,0,0,0-3,2.95,2.72,2.72,0,0,0,2.85,3,3.07,3.07,0,0,0,1.14-.17V26.75H95.43V25.57h2.9Z" transform="translate(-21.47 -21.76)"/><path class="cls-2" d="M99.91,22a15.17,15.17,0,0,1,2.27-.17,3.81,3.81,0,0,1,2.53.66,2.08,2.08,0,0,1,.7,1.64,2.18,2.18,0,0,1-1.48,2.06v0a2.08,2.08,0,0,1,1.14,1.58,17.21,17.21,0,0,0,.65,2.29h-1.55a12.39,12.39,0,0,1-.55-1.94c-.23-1.07-.62-1.41-1.47-1.43h-.75V30.1H99.91Zm1.49,3.63h.88c1,0,1.65-.53,1.65-1.35S103.3,23,102.32,23a3.88,3.88,0,0,0-.92.08Z" transform="translate(-21.47 -21.76)"/><path class="cls-2" d="M108.62,27.77l-.71,2.33h-1.54L109,21.89h1.91l2.66,8.21H112l-.75-2.33ZM111,26.64l-.65-2c-.16-.5-.29-1.06-.41-1.53h0c-.13.47-.25,1-.39,1.53l-.64,2Z" transform="translate(-21.47 -21.76)"/><path class="cls-2" d="M121.66,26.75c0-1.06-.11-2.34-.1-3.44h0c-.27,1-.61,2.1-1,3.14L119.36,30H118.2l-1.09-3.5c-.32-1.05-.61-2.17-.83-3.19h0c0,1.07-.08,2.37-.14,3.49l-.18,3.3h-1.4l.54-8.21h2l1.07,3.3c.29,1,.55,1.94.75,2.85h0c.22-.89.5-1.9.82-2.86l1.13-3.29h2l.47,8.21h-1.46Z" transform="translate(-21.47 -21.76)"/><path class="cls-2" d="M131.78,26.75c-.05-1.06-.11-2.34-.09-3.44h0c-.27,1-.61,2.1-1,3.14L129.48,30h-1.16l-1.09-3.5c-.32-1.05-.61-2.17-.83-3.19h0c0,1.07-.09,2.37-.15,3.49l-.18,3.3h-1.4l.54-8.21h2l1.07,3.3c.29,1,.55,1.94.75,2.85h0c.22-.89.5-1.9.82-2.86L131,21.89h2l.47,8.21h-1.46Z" transform="translate(-21.47 -21.76)"/><path class="cls-3" d="M37.44,41.66a20.36,20.36,0,0,1,3.26-.23,6.14,6.14,0,0,1,3.29.63,2.41,2.41,0,0,1,1.34,2.18,2.52,2.52,0,0,1-1.84,2.38v0a2.79,2.79,0,0,1,2.22,2.75,2.94,2.94,0,0,1-1.16,2.36c-.81.65-2.16,1-4.38,1a20.15,20.15,0,0,1-2.73-.16Zm2.5,4.27h.82c1.33,0,2-.55,2-1.38s-.65-1.29-1.79-1.29a7.07,7.07,0,0,0-1.07.07Zm0,4.94a8.67,8.67,0,0,0,1,0c1.14,0,2.15-.43,2.15-1.6s-1-1.57-2.26-1.57h-.86Z" transform="translate(-21.47 -21.76)"/><path class="cls-3" d="M50.14,41.51V52.66H47.61V41.51Z" transform="translate(-21.47 -21.76)"/><path class="cls-3" d="M52.51,41.51H55v9h4.43v2.12h-7Z" transform="translate(-21.47 -21.76)"/><path class="cls-3" d="M61.14,41.66a22.48,22.48,0,0,1,3.41-.23,7.14,7.14,0,0,1,4.56,1.19A4.92,4.92,0,0,1,71,46.82a5.66,5.66,0,0,1-1.85,4.51A8,8,0,0,1,64,52.77a22.63,22.63,0,0,1-2.86-.16Zm2.53,9.1a4.64,4.64,0,0,0,.88.05c2.28,0,3.77-1.25,3.77-3.91a3.2,3.2,0,0,0-3.51-3.54,5.24,5.24,0,0,0-1.14.1Z" transform="translate(-21.47 -21.76)"/><path class="cls-3" d="M75.35,41.51v6.42c0,1.92.73,2.89,2,2.89s2-.92,2-2.89V41.51h2.51v6.25c0,3.44-1.74,5.08-4.65,5.08s-4.46-1.56-4.46-5.11V41.51Z" transform="translate(-21.47 -21.76)"/><path class="cls-3" d="M84.3,52.66V41.51h2.94l2.32,4.08a33.55,33.55,0,0,1,1.82,3.83h.05a40.4,40.4,0,0,1-.22-4.65V41.51h2.32V52.66H90.88l-2.38-4.3a42.41,42.41,0,0,1-1.94-3.94l0,0c.07,1.47.1,3,.1,4.86v3.36Z" transform="translate(-21.47 -21.76)"/><path class="cls-3" d="M105.2,52.14a12.26,12.26,0,0,1-3.72.63A6.23,6.23,0,0,1,97,51.27a5.41,5.41,0,0,1-1.57-4.05c0-3.71,2.71-5.83,6.37-5.83a7.56,7.56,0,0,1,3.09.55l-.53,2a6.08,6.08,0,0,0-2.6-.48A3.37,3.37,0,0,0,98,47.08a3.63,3.63,0,0,0,4.74,3.49V48.24h-1.72v-2h4.15Z" transform="translate(-21.47 -21.76)"/><path class="cls-3" d="M107.44,50.06a6.36,6.36,0,0,0,2.79.7c1.16,0,1.77-.48,1.77-1.21s-.53-1.09-1.87-1.57c-1.85-.65-3.06-1.67-3.06-3.3,0-1.9,1.59-3.35,4.22-3.35a6.84,6.84,0,0,1,2.85.56l-.57,2a5.34,5.34,0,0,0-2.33-.53c-1.09,0-1.62.5-1.62,1.08s.63,1,2.07,1.57c2,.73,2.89,1.75,2.89,3.33,0,1.87-1.44,3.45-4.5,3.45a7.28,7.28,0,0,1-3.16-.68Z" transform="translate(-21.47 -21.76)"/><path class="cls-3" d="M120.21,46.24v1.67h-4.34V46.24Z" transform="translate(-21.47 -21.76)"/><path class="cls-3" d="M37.44,61.35h6.81v2.07H40V66h4v2H40V72.5H37.44Z" transform="translate(-21.47 -21.76)"/><path class="cls-3" d="M56.08,66.81c0,3.66-2.22,5.87-5.48,5.87S45.36,70.19,45.36,67c0-3.34,2.13-5.84,5.43-5.84S56.08,63.73,56.08,66.81ZM48,67c0,2.18,1,3.72,2.72,3.72s2.68-1.62,2.68-3.79c0-2-1-3.72-2.7-3.72S48,64.79,48,67Z" transform="translate(-21.47 -21.76)"/><path class="cls-3" d="M57.45,61.5a22.52,22.52,0,0,1,3.36-.23,5.66,5.66,0,0,1,3.6.88,2.83,2.83,0,0,1,1,2.33,3,3,0,0,1-2,2.74v0A2.82,2.82,0,0,1,65,69.36a32.35,32.35,0,0,0,.91,3.14H63.29a13.73,13.73,0,0,1-.78-2.6c-.3-1.38-.78-1.77-1.8-1.78H60V72.5h-2.5ZM60,66.3h1c1.26,0,2-.63,2-1.61s-.69-1.53-1.85-1.55a6.7,6.7,0,0,0-1.14.08Z" transform="translate(-21.47 -21.76)"/><path class="cls-3" d="M67.06,69.9a6.36,6.36,0,0,0,2.79.7c1.16,0,1.77-.48,1.77-1.21s-.53-1.09-1.87-1.57c-1.85-.64-3.06-1.67-3.06-3.29,0-1.9,1.59-3.36,4.22-3.36a6.92,6.92,0,0,1,2.84.56l-.56,2a5.2,5.2,0,0,0-2.33-.53c-1.09,0-1.62.49-1.62,1.07s.63,1,2.07,1.58c2,.72,2.89,1.75,2.89,3.32,0,1.87-1.44,3.46-4.5,3.46A7.28,7.28,0,0,1,66.54,72Z" transform="translate(-21.47 -21.76)"/><path class="cls-3" d="M83.81,72.19a7.22,7.22,0,0,1-2.86.48c-3.86,0-5.84-2.4-5.84-5.58,0-3.8,2.71-5.92,6.09-5.92a6.59,6.59,0,0,1,2.74.5l-.51,2a5.38,5.38,0,0,0-2.12-.41,3.34,3.34,0,0,0-3.55,3.68,3.32,3.32,0,0,0,3.57,3.64,6.28,6.28,0,0,0,2.1-.36Z" transform="translate(-21.47 -21.76)"/><path class="cls-3" d="M87.71,61.35v4.29h4.15V61.35h2.52V72.5H91.86V67.84H87.71V72.5H85.18V61.35Z" transform="translate(-21.47 -21.76)"/><path class="cls-3" d="M98.81,61.35v6.42c0,1.92.72,2.9,2,2.9s2.06-.93,2.06-2.9V61.35h2.51v6.26c0,3.44-1.74,5.07-4.65,5.07s-4.46-1.55-4.46-5.11V61.35Z" transform="translate(-21.47 -21.76)"/><path class="cls-3" d="M107.29,72.5V61.35h2.94l2.32,4.09a32.62,32.62,0,0,1,1.82,3.82h0a40.29,40.29,0,0,1-.22-4.65V61.35h2.32V72.5h-2.65l-2.38-4.3a40,40,0,0,1-1.93-3.94l0,0c.06,1.47.09,3,.09,4.86V72.5Z" transform="translate(-21.47 -21.76)"/><path class="cls-3" d="M127.73,72a12.64,12.64,0,0,1-3.72.63,6.2,6.2,0,0,1-4.53-1.51,5.4,5.4,0,0,1-1.58-4c0-3.71,2.72-5.82,6.37-5.82a7.84,7.84,0,0,1,3.1.54l-.53,2a6.31,6.31,0,0,0-2.6-.48,3.63,3.63,0,1,0,1.06,7.1V68.08h-1.72v-2h4.15Z" transform="translate(-21.47 -21.76)"/><path class="cls-3" d="M29.39,70.25V71.9h1.52V70.06h.46v2.38H27.14V70.16h.46V71.9h1.33V70.25Z" transform="translate(-21.47 -21.76)"/><path class="cls-3" d="M29.51,65.8c-.59,0-1.3.07-1.82.06v0c.49.14,1,.32,1.6.53l2.05.75v.41l-2,.69a16.66,16.66,0,0,1-1.64.48v0c.52,0,1.23,0,1.87.08l1.81.11v.52l-4.23-.29v-.7l2.05-.72c.52-.18,1-.32,1.42-.43v0a13,13,0,0,1-1.42-.44l-2.05-.75v-.7l4.23-.26v.53Z" transform="translate(-21.47 -21.76)"/><path class="cls-3" d="M27.19,64.32a6.8,6.8,0,0,1-.08-1,1.7,1.7,0,0,1,.35-1.18,1.14,1.14,0,0,1,.88-.37,1.22,1.22,0,0,1,.91.33,1.71,1.71,0,0,1,.46,1.29,1.53,1.53,0,0,1,0,.44h1.7v.54Zm2-.54a2,2,0,0,0,0-.46c0-.65-.32-1.06-.9-1.06s-.83.4-.83,1a2,2,0,0,0,.05.52Z" transform="translate(-21.47 -21.76)"/><path class="cls-3" d="M27.14,60.44h4.23V61H27.14Z" transform="translate(-21.47 -21.76)"/><path class="cls-3" d="M27.2,59.49a5.41,5.41,0,0,1-.09-1.05,1.76,1.76,0,0,1,.34-1.22,1.08,1.08,0,0,1,.81-.33,1.11,1.11,0,0,1,1.08.79h0a1.09,1.09,0,0,1,.86-.62,6.17,6.17,0,0,0,1.16-.32v.56a5.74,5.74,0,0,1-1,.28c-.58.13-.8.36-.82.85v.51h1.83v.55Zm1.92-.55v-.55c0-.59-.32-1-.8-1s-.78.4-.79,1a1.9,1.9,0,0,0,0,.53Z" transform="translate(-21.47 -21.76)"/><path class="cls-3" d="M27.14,55.57h4.23v.55H27.14Z" transform="translate(-21.47 -21.76)"/><path class="cls-3" d="M30.7,54.7a2,2,0,0,0,.28-1c0-.56-.3-.89-.72-.89s-.62.23-.84.8-.6,1.12-1.2,1.12a1.22,1.22,0,0,1-1.15-1.37,1.84,1.84,0,0,1,.21-.93l.44.15a1.72,1.72,0,0,0-.2.8c0,.58.35.8.64.8s.59-.26.81-.85.62-1.07,1.24-1.07,1.22.48,1.22,1.48a2.23,2.23,0,0,1-.27,1.08Z" transform="translate(-21.47 -21.76)"/><path class="cls-3" d="M31.23,48.58a2.71,2.71,0,0,1,.2,1.12,2,2,0,0,1-2.14,2.08,2.1,2.1,0,0,1-2.22-2.2,2.23,2.23,0,0,1,.19-1l.45.13a2,2,0,0,0-.18.86,1.57,1.57,0,0,0,1.74,1.65A1.54,1.54,0,0,0,31,49.58a2.31,2.31,0,0,0-.17-.89Z" transform="translate(-21.47 -21.76)"/><path class="cls-3" d="M27.14,47.35h1.77v-2H27.14v-.55h4.23v.55h-2v2h2v.55H27.14Z" transform="translate(-21.47 -21.76)"/><path class="cls-3" d="M29.39,41.62v1.65h1.52V41.44h.46v2.37H27.14V41.53h.46v1.74h1.33V41.62Z" transform="translate(-21.47 -21.76)"/></svg>