<svg xmlns="http://www.w3.org/2000/svg" xmlns:xlink="http://www.w3.org/1999/xlink" width="280" height="280" viewBox="0 0 280 280">
  <defs>
    <clipPath id="clip-Zeichenfläche_2">
      <rect width="280" height="280"/>
    </clipPath>
  </defs>
  <g id="Zeichenfläche_2" data-name="Zeichenfläche – 2" clip-path="url(#clip-Zeichenfläche_2)">
    <path id="chalkboard-teacher-fill" d="M239.085,40H41.924C32.025,40,24,48.5,24,58.985V229.855c0,10.485,8.025,18.985,17.924,18.985h15a8.938,8.938,0,0,0,8.1-5.423c8.9-19.893,27.816-32.576,48.6-32.576s39.7,12.683,48.6,32.576a8.938,8.938,0,0,0,8.1,5.423h68.771c9.9,0,17.924-8.5,17.924-18.985V58.985C257.009,48.5,248.984,40,239.085,40ZM113.619,191.884c-19.8,0-35.848-17-35.848-37.971s16.049-37.971,35.848-37.971,35.848,17,35.848,37.971S133.417,191.884,113.619,191.884Zm125.466,37.971H175.714a75.11,75.11,0,0,0-14.742-18.985H212.2a9.239,9.239,0,0,0,8.962-9.493V87.464a9.239,9.239,0,0,0-8.962-9.493H68.809a9.239,9.239,0,0,0-8.962,9.493V201.377a9.413,9.413,0,0,0,6.721,9.2,74.833,74.833,0,0,0-15.045,19.282h-9.6V58.985H239.085Z" transform="translate(-0.505 -4.42)" fill="#fff"/>
  </g>
</svg>
