<svg xmlns="http://www.w3.org/2000/svg" width="822.975" height="1280" viewBox="0 0 822.975 1280">
  <g id="_1487005_1_" data-name="1487005 (1)" transform="translate(0 1280)">
    <path id="Pfad_63" data-name="Pfad 63" d="M400.1-1278.3c-.5,1-2.1,6.3-3.6,11.8-4.3,15.9-5.4,18-10.8,19.3-6.5,1.7-11.7,6.8-11.7,11.6,0,4.7,5.8,11.2,13.5,15.2,5.9,3.1,6.3,4.1,2.4,6.3-3.6,2-6.5.9-14.4-5.4-9.2-7.4-11.1-8.3-13.2-6.2-1.5,1.4-1.5,2.9-.6,12.9.6,6.2.9,11.4.8,11.6-.2.2-3-1.5-6.3-3.7-8-5.5-9.4-5.3-12.1,1-3.5,7.9-2.4,11.8,5.7,20.1,5.2,5.5,6.3,7,5.3,8.2-2.8,3.3-5.2,2.7-11.5-3.3-8.1-7.7-10-8.7-13.2-6.7a8.61,8.61,0,0,0-3,4.1c-.8,3.1,0,17.4,1.1,19.9,1.8,4.2-2.1.8-6.1-5.2-5.7-8.7-8.3-11.2-11.5-11.2-4.1,0-5.9,3.6-5.9,12.2,0,11.4,4.8,25.4,13.7,39.9a45.442,45.442,0,0,1,4.8,11c1.8,6.5,1.9,20.8.4,29.6-1.1,6.2-1.2,6.4-3.8,5.9-12.2-2.3-20.4-1.3-22.2,2.8-1.8,3.9,1.2,7.9,10.3,14,13.1,8.8,12.7,8.3,9.9,10.4-5.2,3.8-8.8,5.2-13.2,5.2-3.7,0-5.5-.7-9.9-4-6.2-4.7-10.7-5.2-17-2-8.6,4.4-12.3,14.5-8.2,22.6a41.745,41.745,0,0,0,4.2,6.4c2.5,2.9,5.3,8,4.7,8.6-.4.4-5.5-1.3-16.7-5.5a33.957,33.957,0,0,0-12.2-2.1c-6.1,0-6.9.3-8.4,2.5-1.2,1.9-1.4,3.8-.9,8.9l.7,6.4-4.8.7c-7.2,1-9.4,2.8-9.4,7.4,0,5.1,4,8.7,10.8,9.6,13.8,1.9,15.7,4.7,9.6,14.2-4.3,6.5-8.5,8.3-19.3,8.3-5.7,0-10.5.5-12.6,1.4-3.1,1.3-3.5,1.9-3.5,5.2,0,5.3,5.6,10.7,13.5,12.9,7.5,2.2,22.3,1.5,32.3-1.4,13-3.9,18.2-8.3,30.3-25.3,5.1-7.1,15.8-15.9,27-22.1,6.1-3.4,6.7-3.5,7.2-1.8.4,1.5-1.9,3.5-11.2,9.8l-11.6,7.8-4,8.3c-3.2,6.6-5.8,10.1-12.3,16.6l-8.2,8.2v9.4a137.476,137.476,0,0,1-1.2,17.5l-1.1,8.1-11.6,7c-8.4,5.1-11.6,7.5-11.6,8.9,0,1.8.9,2.1,7.5,2.5l7.5.5-5.7,6.1c-3.2,3.3-5.8,6.5-5.8,7s1.9,2.8,4.1,5.2c2.3,2.4,4,4.4,3.8,4.5-9.5,6.1-17,16.4-18.9,25.9-2.8,14-6.9,22.3-15.5,31.7-6.2,6.6-7.6,11.1-5.1,15.9,2.2,4.3,7.3,5.7,14.9,4.3,6.7-1.2,15-4.6,17-6.9.8-1,4.7-11.8,8.7-24.2s7.7-23.6,8.2-25,3.4-4.2,6.8-6.3c3.2-2.1,6.4-4.4,7-5.2.6-.7,1.6-5.3,2.2-10.2.9-7.9.8-9.5-1-15.5l-2-6.7,4.7-3c8.7-5.5,36.9-22.1,37.5-22.1.3,0,.6,3.7.6,8.2.1,16.1,2.3,25.1,7.6,30.9l2.4,2.5-5.9-.4-5.9-.4-5.6,17c-3.1,9.4-5.6,17.8-5.5,18.9,0,1,3.3,8.3,7.3,16.3l7.4,14.5-12.2,13c-11.1,11.8-18.9,22-30.2,39-3.4,5.1-4.2,7.3-5.3,15-.7,4.9-1.4,9.1-1.5,9.3-.2.1-3.2.7-6.7,1.3-8.8,1.4-10.7,3.2-7.1,6.6,6.8,6.6,24.9,21.3,26.2,21.3,1.1,0,3.7-2.6,5.1-5.1.6-1.1,1.5-1.9,2-1.7.6.2,6,7.7,12.2,16.8s11.9,16.6,12.7,16.8c1,.2,3.6-2.5,6.7-6.6l5.2-6.9-.9-8.4c-.4-4.6-.7-8.5-.6-8.6s4.6,5.4,10,12.3c10.9,13.9,10.1,13.4,21.8,10.9a27.819,27.819,0,0,0,12-5.3c6.4-4.8,13-8.2,15.9-8.2a9.495,9.495,0,0,1,4.6,2,10.787,10.787,0,0,0,6.6,2c3.6,0,4.6-.6,9-5.2l4.8-5.1,6.3,2.1a44.915,44.915,0,0,0,12,2.2c3.8,0,5.6.4,5.6,1.2,0,1-2.7,1.3-10.2,1.3-11.9,0-17.2,1.9-19.8,7-3.9,7.9-8.8,15.3-19,28.9l-11.1,14.9,1.8,2.6c11.9,18.2,15.6,32.1,11.4,43.1a41.754,41.754,0,0,0-2.1,6.3c0,1.6,6.5,6.7,8.5,6.7a13.2,13.2,0,0,0,4.5-1.5,18.632,18.632,0,0,1,3.2-1.5c.3,0,.4,4.4.1,9.8-.7,11.4-.7,11.4,9,13.9l6.7,1.8,4.8-5.5c2.7-3,6.1-6.9,7.5-8.5,2.2-2.5,2.8-2.8,3.7-1.5,1.6,2.5,1.2,3.4-5,11.5-3.3,4.3-6,8.4-6,9.2a12.457,12.457,0,0,0,2.1,4.3c1.6,2,2,3.6,1.5,5.5-.6,2.5-1,2.7-4.9,2.1-2.3-.3-7.2-.8-10.9-1.2l-6.7-.7-2.2,7.3c-2,6.8-2.4,8.7-2,11.7,0,.6,3.3,3.5,7.1,6.4,9.3,6.9,9.4,8.9.9,15-3.3,2.4-8.3,6.2-11.1,8.3-4.9,3.8-5,4-4.4,8.1.9,5.6,1.6,9.3,2.5,13.6.8,3.4.6,3.8-4.5,8.3-3,2.6-5.4,5.5-5.4,6.4,0,1,1.6,4.1,3.6,7l3.5,5.3-2.5,3-2.6,3-1-2.8c-.6-1.5-1.8-4.8-2.7-7.3a32.688,32.688,0,0,0-3-6.2c-2.1-2.4-10.4-4.8-16.7-4.8-5,0-5.7.3-9.2,4-4.6,4.8-8.2,6.3-11.5,4.6-1.3-.6-5.1-4.6-8.4-8.8s-6.7-7.7-7.5-7.7c-.9-.1-4.2,2.6-7.5,5.9-5.9,6-6,6-11.7,6-3.2,0-5.8-.4-5.8-.9a27.542,27.542,0,0,1,2-5.2,23.366,23.366,0,0,0,2-5.9c0-1.8-26.5-31-28.2-31-2,0-18.8,16.2-18.8,18.1,0,1.1,3.4,8.6,7.5,16.8l7.4,14.9-5.5,6.9c-12.2,14.9-14.7,17.4-22.8,22.2a107.085,107.085,0,0,1-11,6.1c-3.3,1.2-3.3.7,2.3,14,2.2,5.2,4.6,9.9,5.4,10.4,1,.7,3.7-.7,9.7-5,4.5-3.2,9.2-6.6,10.4-7.4s3.8-2.7,5.7-4.2c2-1.6,4-2.8,4.6-2.8.5,0,4.3,4.2,8.4,9.3l7.4,9.2.6,9.5c.4,5.2.7,14.3.8,20.2l.1,10.6-3.2,2.7c-1.8,1.5-5.1,4.4-7.3,6.4s-5.8,5.1-8,7c-5.1,4.3-14.8,12.8-23.9,20.9l-7.1,6.3-7-.7c-3.8-.3-9.3-.9-12.2-1.3-6-.9-5.8-1-16.6,12.5-4.5,5.6-6.2,7.1-8,6.8-7.5-1.1-29.2-4.6-34.3-5.6-7.6-1.4-9.2-.8-9.8,3.4-.7,5.2-2.7,27.7-2.9,34.2l-.2,6,5.4,3c4.7,2.7,6.1,4.3,10.7,12.1,5.1,8.7,5.4,9,9.6,9.7,2.4.3,8.6.7,13.9.7l9.7.1,6.2-7,6.3-7.1,11.1.3,11.1.3.7,8c1.1,13.4,3.6,26.9,5.2,28,1,.8,4.4.8,10.8.2,9-.9,9.4-1,13.4-4.8l4.1-4,4.7,1.3c5.5,1.4,4.9.5,10.5,18,2,6.5,4.6,12.7,5.7,13.9,1.9,2.1,16.9,15.1,20.4,17.7,1.5,1.1,3.5,1.1,11.6-.1l9.7-1.5,10.6-10.6,10.5-10.7,5.6,1.5a43.516,43.516,0,0,1,9.3,3.3l3.7,1.8L366.8-176l-10.3,8.5-4.4,10.2c-5,11.6-3.6,10.6-19.6,13.8l-11,2.3-15.2-9.7c-24.9-15.8-20.6-14.3-38.4-13-8.5.6-17.3.8-19.6.5-5.2-.7-5.2-.7-13.9,13.1-9.2,14.6-8.8,14.3-14.5,14.3H215l-3.5-7c-1.9-3.9-4.1-7-4.8-7s-4.9,3.3-9.2,7.4l-7.9,7.3,2.9,10.4c1.5,5.7,3,10.9,3.2,11.5s-6.8,6.3-15.6,12.8L164-88.9l-6.1-1.3c-6-1.2-6.2-1.2-8,1.1a50.585,50.585,0,0,0-4.7,8.3c-2.7,5.9-2.9,6-12.4,10.9-5.4,2.7-9.8,5.5-9.8,6.1,0,1-2.6,8.2-4.5,12.5-.1.2-11.3.7-25.1,1.3-13.7.5-26.5,1.4-28.4,1.8l-3.5.8.1,9.3c.1,10,.6,11.1,5.5,11.1,4.8,0,18.6,4.6,24.4,8.1,6.2,3.7,10.2,9.2,11.2,15.3.5,3.2.9,3.6,3.5,3.6,6,0,18.9-13.6,23.3-24.7,1.3-3.2,3.5-6.7,4.9-7.7,2.4-1.8,2.6-1.8,7.8-.1a31.019,31.019,0,0,1,7.9,3.6c5.2,3.6,6.5,2.8,11.6-7.6,4.1-8.2,5-9.4,6.8-8.9,3.6,1.1,33.2,15.3,61.9,29.5C245.7-8.2,259.1-2,260.1-2c2.4,0,6.2-4.9,13.2-17.1,5-8.8,5.7-10.8,5.7-15.5,0-5,.1-5.3,2.8-5.6,2.4-.3,3.5-1.9,9.7-13.9l7-13.6,20,5.9C381.4-43.1,422-32,427.2-32c3.8,0,5.8-4.6,5.8-13.2v-6.3l9.7.3c5.4.1,15.6.7,22.7,1.2,18.7,1.4,29.5,1.3,30.2-.4.3-.7-.6-5.7-1.9-11-1.4-5.3-2.3-9.6-2-9.6a54.848,54.848,0,0,1,6.1,4.3c3.1,2.3,6.7,4.9,7.9,5.7,1.1.8,9,6.4,17.3,12.5,8.3,6,16,11.6,17,12.3,1.4,1.1,4.3,1.1,14.2.3,26.1-2.2,39.5-3.1,45.9-3.1h6.6l13.7,9c18.8,12.4,16.6,12.5,51.4-2.5C686.6-38.8,699-44,699.6-44c.5,0,2,1.6,3.3,3.5,3.4,5.1,5.7,4.6,11.5-2.4,2.6-3.2,6.6-7.6,8.7-9.7,3.9-3.8,4.4-3.9,14.2-5.1,5.6-.6,12-1.2,14.3-1.2,5.3-.1,7-2.1,8.3-9.6.5-3.3,1.9-11,3.1-17,4.3-22.4,4.5-23.6,2.9-24.6a8.3,8.3,0,0,0-4.9-.3c-1.9.3-6.2,1-9.5,1.5-18.8,2.6-33.8,5-34.6,5.4-.9.6-1.4-1.2-5-15.9-1.3-5.4-2.8-10-3.4-10.1a98.7,98.7,0,0,0-10.8-1c-5.4-.4-9.6-.9-9.4-1.1.3-.3,8-.8,17.3-1.2l16.9-.7,6.7-12.5c3.7-6.9,6.7-13.4,6.8-14.6,0-1.5-.9-2.4-3.2-3.2-2.9-.9-2.1-1,5.5-1.1l8.9-.1,8.4-5.5c4.6-3,8.4-5.7,8.4-6,0-1.2-2.3-5-5.2-8.8-3.4-4.3-3.1-4.4,6.5-2.1l6.8,1.7,4.6-4.4c16.5-16,34.8-41.9,42.6-60,3-7.2,3.1-7.9,3.5-25,.4-17.5.3-17.7-2.3-23-13.4-26.6-45.8-48.6-83.8-56.8-22.7-4.9-38.9-.8-44.6,11.4a24.523,24.523,0,0,0-2.1,7.9c0,3.4,0,3.4-3.2,2.6a28.709,28.709,0,0,1-13.5-10.2l-2.5-3.7,3-4.4c3.8-5.4,7.6-8.4,16.9-13,10.3-5.3,11.8-7.7,11.7-19.7a55.028,55.028,0,0,0-2.8-18.5c-3-9.9-11-28.5-16.3-38.1-4.8-8.7-4.5-9.8,2.5-11.3,15.2-3.4,13.8-11.5-8.3-49.1-11.7-19.8-11.5-21.5,2.2-30.8,3.3-2.2,6.3-4.8,6.7-5.7,2.6-7-2.5-13.6-24.2-30.8-6.2-5-7.8-7-11.3-14-9.4-18.8-17.3-29.5-26.4-35.7-4.9-3.4-15.1-7-19.6-7-5.1,0-10.9-2.2-13.9-5.1-14.9-15-17.4-72.2-5.8-133.7,1.5-8,1.8-12.2,1.2-14s-3.8-4.6-9.2-8.2c-4.6-3-9.7-7.3-11.4-9.5-4.8-6.3-9.5-17-13.8-31.4-6.1-19.9-11.2-28.8-19.7-33.8-4.3-2.5-5.6-2.8-13.3-2.7a68.329,68.329,0,0,0-12.5,1.3,48.183,48.183,0,0,1-10.2,1.1,104.788,104.788,0,0,0-16,2c-15.7,3.1-23.3,3.6-27.6,1.5-4-1.9-5.7-5.6-3.7-8,2.5-3,8-3.8,22.5-3.1,16.1.8,15.8.9,18.9-7.7,1.3-3.4,2.3-4.7,3.7-4.7,1,0,6.3,2.2,11.6,5,11,5.7,16.6,6.5,19.8,3,3.8-4.2,2.9-20.3-1.6-29.1-1.8-3.6-8.1-9.9-9.9-9.9a.923.923,0,0,1-1-.9c0-.4,10-10.9,22.3-23.2,30.4-30.5,47.6-50.7,57.8-67.9,5.9-9.8,8-15.5,9-24.8,1.3-11.5,3.7-15.4,13.4-21.3,6.2-3.7,8.5-5.7,10.3-9,5.1-9.7,1.4-17.7-12.1-26.2-7.1-4.5-34.1-13.1-49.7-15.8-12.4-2.1-27.8-3.9-34.2-3.9s-7.7-.4-18.6-6c-15.5-7.9-18.4-8-29.1-1.1-14.9,9.5-14,9.3-36,9.6-10.7.1-20.1,0-20.8-.2-4.2-1.6,1.7-12.3,8.7-15.8l4.8-2.4,2.8,2.2c2.3,1.8,4.1,2.2,9.7,2.2h6.9l7.9-8.2c4.6-4.8,7.9-9.1,7.9-10.3,0-3.4-5.5-6-13-6-6.7,0-10.3-1.2-8.5-2.8.6-.5,8.4-6,17.5-12.3,27.7-19,60.2-41.9,65.5-46.1,6.6-5.2,18.5-24.1,21-33.3l1.8-6.5-2.2-2.4c-2.8-3-13.7-6-27.1-7.5-5.2-.6-13.3-1.6-17.9-2.1-9.3-1.1-54-1.4-59-.4-2.3.5-3.7,1.7-5.1,4.3a43.079,43.079,0,0,1-4.3,6.5l-2.4,2.9-1.2-6.4a60.425,60.425,0,0,0-2.7-9.7c-2.1-5.2-9.8-14.5-15.7-19-5.2-4-5.7-4.2-12.5-4.2C402.4-1280,400.9-1279.7,400.1-1278.3Zm28.8,821.9c.5.4-4.2,6.3-5.1,6.3-.6.1-14.1-17.1-16.2-20.7C407.1-471.7,425.8-459.1,428.9-456.4Z" fill="#fff"/>
    <path id="Pfad_64" data-name="Pfad 64" d="M149-799c-1.9,1.7-4,3-4.7,3a71.874,71.874,0,0,1-8.9-2.6c-4.2-1.4-8.6-2.4-9.7-2.2-1.6.2-3.5,2.7-6.9,9.2-2.6,4.8-4.8,8.9-5,9.1-1.1,1.1-12.3-2-18-5-5.3-2.8-7.2-3.4-8.3-2.5-1.6,1.3-6.7,9.9-15.6,26.3L65.5-752l-6.7-.5c-3.8-.3-9.9-.7-13.7-1-8.9-.8-9.3.2-4,10.7,2.2,4.4,3.8,8.2,3.6,8.4-.2.3-6,2-12.8,4-6.8,1.9-13.5,3.9-14.9,4.4s-5.8,1.8-9.7,3C.1-720.9,0-720.9,0-717.6c0,2.8,1.7,5.5,8.6,14.3,4.7,5.9,12.4,15.7,17.2,21.8,4.7,6,11,14,13.9,17.7l5.4,6.8H58.9c9.9,0,14.1-.4,14.9-1.3,1-1.2,1.9-4.9,4.5-19.2l1.3-6.9,5.5-1.3c3-.7,7.2-1.7,9.4-2.2s4.1-.9,4.2-.7c.4.3,2.2,13.9,2.9,20.8l.5,6.7,8.9,6.6,8.9,6.7-3.4,6.9c-1.9,3.7-3.5,7.5-3.5,8.3,0,1,2.5,2.2,7.3,3.6,3.9,1.2,8.5,2.5,10.1,3.1,5.6,1.8,7.3,1.2,10.1-3.5l2.6-4.5,9,6.6,9,6.6,7.2-.7c4-.4,7.8-1.3,8.7-2.1.9-.9,4-6,6.8-11.4l5.2-9.9,5.8-.7c3.1-.4,10.8-1,17-1.4s11.7-1.2,12.4-1.9c.6-.6,1.5-5.7,1.9-11.4s1.3-16.6,1.9-24.4c.6-7.7.8-14.8.4-15.8-.7-1.8-1.6-1.8-17.7.9-5.9,1-8.5,1-10.8.2-1.6-.6-2.9-1.4-2.9-1.8,0-.7,6-6.3,15.8-14.7,6-5.2,6.2-5.5,6.1-10-.3-9.5-.7-10.3-8.9-14.7l-7.5-4-1.4-7.5c-1.1-6.2-1.1-9.2-.1-17,2.1-15.8,2.5-14.6-5.5-19.5-3.8-2.4-10.4-6.4-14.6-8.9l-7.6-4.6H162.9C152.9-801.9,152.4-801.8,149-799Z" fill="#fff"/>
  </g>
</svg>
