<svg xmlns="http://www.w3.org/2000/svg" width="288.43" height="290.235" viewBox="0 0 288.43 290.235">
  <g id="monument-svgrepo-com" transform="translate(-0.903 0)">
    <path id="Pfad_65" data-name="Pfad 65" d="M184.087,134.359a9.115,9.115,0,0,0-9.115-9.115H115.265a9.115,9.115,0,0,0,0,18.23V272.005a9.115,9.115,0,1,0,0,18.23h59.707a9.115,9.115,0,1,0,0-18.23V143.474A9.115,9.115,0,0,0,184.087,134.359Z" fill="#fff"/>
    <path id="Pfad_66" data-name="Pfad 66" d="M89.4,134.359a9.115,9.115,0,0,0-9.115-9.115H20.576a9.115,9.115,0,0,0,0,18.23V272.005a9.115,9.115,0,1,0,0,18.23H80.283a9.115,9.115,0,1,0,0-18.23V143.474A9.115,9.115,0,0,0,89.4,134.359Z" fill="#fff"/>
    <path id="Pfad_67" data-name="Pfad 67" d="M278.775,134.359a9.115,9.115,0,0,0-9.115-9.115H209.953a9.115,9.115,0,1,0,0,18.23V272.005a9.115,9.115,0,1,0,0,18.23H269.66a9.115,9.115,0,0,0,0-18.23V143.474A9.115,9.115,0,0,0,278.775,134.359Z" fill="#fff"/>
    <path id="Pfad_68" data-name="Pfad 68" d="M287.712,95.29,153.957,2.759a15.537,15.537,0,0,0-17.678,0L2.524,95.29a3.761,3.761,0,0,0,2.14,6.854H285.572a3.761,3.761,0,0,0,2.14-6.854Z" fill="#fff"/>
  </g>
</svg>
