<svg xmlns="http://www.w3.org/2000/svg" xmlns:xlink="http://www.w3.org/1999/xlink" width="280" height="280" viewBox="0 0 280 280">
  <defs>
    <clipPath id="clip-Zeichenfläche_3">
      <rect width="280" height="280"/>
    </clipPath>
  </defs>
  <g id="Zeichenfläche_3" data-name="Zeichenfläche – 3" clip-path="url(#clip-Zeichenfläche_3)">
    <path id="math-operations-fill" d="M244.689,32H51.335A19.567,19.567,0,0,0,32,51.791V249.7a19.567,19.567,0,0,0,19.335,19.791H244.689A19.567,19.567,0,0,0,264.025,249.7V51.791A19.567,19.567,0,0,0,244.689,32ZM170.176,88.479a10.067,10.067,0,0,1,0-14,9.516,9.516,0,0,1,13.68,0l12.5,12.8,12.5-12.8a9.516,9.516,0,0,1,13.68,0,10.067,10.067,0,0,1,0,14l-12.508,12.79,12.508,12.79a10.067,10.067,0,0,1,0,14,9.516,9.516,0,0,1-13.68,0l-12.5-12.8-12.5,12.8a9.516,9.516,0,0,1-13.68,0,10.067,10.067,0,0,1,0-14l12.508-12.79Zm-41.5,121.641H109.342v19.791a9.67,9.67,0,1,1-19.335,0V210.12H70.671a9.9,9.9,0,0,1,0-19.791H90.006V170.538a9.67,9.67,0,1,1,19.335,0v19.791h19.335a9.9,9.9,0,0,1,0,19.791Zm0-98.956H70.671a9.9,9.9,0,0,1,0-19.791h58.006a9.9,9.9,0,0,1,0,19.791Zm96.677,118.747H167.348a9.9,9.9,0,0,1,0-19.791h58.006a9.9,9.9,0,0,1,0,19.791Zm0-39.582H167.348a9.9,9.9,0,0,1,0-19.791h58.006a9.9,9.9,0,0,1,0,19.791Z" transform="translate(-8.012 -10.747)" fill="#fff"/>
  </g>
</svg>
