<svg xmlns="http://www.w3.org/2000/svg" width="200" height="200" viewBox="0 0 200 200">
  <g id="Gruppe_1" data-name="Gruppe 1" transform="translate(-32 -32)">
    <rect id="Rechteck_2" data-name="Rechteck 2" width="8" height="8" transform="translate(32 32)" fill="#292f61"/>
    <rect id="Rechteck_3" data-name="Rechteck 3" width="8" height="8" transform="translate(32 40)" fill="#292f61"/>
    <rect id="Rechteck_4" data-name="Rechteck 4" width="8" height="8" transform="translate(32 48)" fill="#292f61"/>
    <rect id="Rechteck_5" data-name="Rechteck 5" width="8" height="8" transform="translate(32 56)" fill="#292f61"/>
    <rect id="Rechteck_6" data-name="Rechteck 6" width="8" height="8" transform="translate(32 64)" fill="#292f61"/>
    <rect id="Rechteck_7" data-name="Rechteck 7" width="8" height="8" transform="translate(32 72)" fill="#292f61"/>
    <rect id="Rechteck_8" data-name="Rechteck 8" width="8" height="8" transform="translate(32 80)" fill="#292f61"/>
    <rect id="Rechteck_9" data-name="Rechteck 9" width="8" height="8" transform="translate(32 96)" fill="#292f61"/>
    <rect id="Rechteck_10" data-name="Rechteck 10" width="8" height="8" transform="translate(32 136)" fill="#292f61"/>
    <rect id="Rechteck_11" data-name="Rechteck 11" width="8" height="8" transform="translate(32 152)" fill="#292f61"/>
    <rect id="Rechteck_12" data-name="Rechteck 12" width="8" height="8" transform="translate(32 176)" fill="#292f61"/>
    <rect id="Rechteck_13" data-name="Rechteck 13" width="8" height="8" transform="translate(32 184)" fill="#292f61"/>
    <rect id="Rechteck_14" data-name="Rechteck 14" width="8" height="8" transform="translate(32 192)" fill="#292f61"/>
    <rect id="Rechteck_15" data-name="Rechteck 15" width="8" height="8" transform="translate(32 200)" fill="#292f61"/>
    <rect id="Rechteck_16" data-name="Rechteck 16" width="8" height="8" transform="translate(32 208)" fill="#292f61"/>
    <rect id="Rechteck_17" data-name="Rechteck 17" width="8" height="8" transform="translate(32 216)" fill="#292f61"/>
    <rect id="Rechteck_18" data-name="Rechteck 18" width="8" height="8" transform="translate(32 224)" fill="#292f61"/>
    <rect id="Rechteck_19" data-name="Rechteck 19" width="8" height="8" transform="translate(40 32)" fill="#292f61"/>
    <rect id="Rechteck_20" data-name="Rechteck 20" width="8" height="8" transform="translate(40 80)" fill="#292f61"/>
    <rect id="Rechteck_21" data-name="Rechteck 21" width="8" height="8" transform="translate(40 96)" fill="#292f61"/>
    <rect id="Rechteck_22" data-name="Rechteck 22" width="8" height="8" transform="translate(40 104)" fill="#292f61"/>
    <rect id="Rechteck_23" data-name="Rechteck 23" width="8" height="8" transform="translate(40 112)" fill="#292f61"/>
    <rect id="Rechteck_24" data-name="Rechteck 24" width="8" height="8" transform="translate(40 144)" fill="#292f61"/>
    <rect id="Rechteck_25" data-name="Rechteck 25" width="8" height="8" transform="translate(40 176)" fill="#292f61"/>
    <rect id="Rechteck_26" data-name="Rechteck 26" width="8" height="8" transform="translate(40 224)" fill="#292f61"/>
    <rect id="Rechteck_27" data-name="Rechteck 27" width="8" height="8" transform="translate(48 32)" fill="#292f61"/>
    <rect id="Rechteck_28" data-name="Rechteck 28" width="8" height="8" transform="translate(48 48)" fill="#292f61"/>
    <rect id="Rechteck_29" data-name="Rechteck 29" width="8" height="8" transform="translate(48 56)" fill="#292f61"/>
    <rect id="Rechteck_30" data-name="Rechteck 30" width="8" height="8" transform="translate(48 64)" fill="#292f61"/>
    <rect id="Rechteck_31" data-name="Rechteck 31" width="8" height="8" transform="translate(48 80)" fill="#292f61"/>
    <rect id="Rechteck_32" data-name="Rechteck 32" width="8" height="8" transform="translate(48 112)" fill="#292f61"/>
    <rect id="Rechteck_33" data-name="Rechteck 33" width="8" height="8" transform="translate(48 144)" fill="#292f61"/>
    <rect id="Rechteck_34" data-name="Rechteck 34" width="8" height="8" transform="translate(48 160)" fill="#292f61"/>
    <rect id="Rechteck_35" data-name="Rechteck 35" width="8" height="8" transform="translate(48 176)" fill="#292f61"/>
    <rect id="Rechteck_36" data-name="Rechteck 36" width="8" height="8" transform="translate(48 192)" fill="#292f61"/>
    <rect id="Rechteck_37" data-name="Rechteck 37" width="8" height="8" transform="translate(48 200)" fill="#292f61"/>
    <rect id="Rechteck_38" data-name="Rechteck 38" width="8" height="8" transform="translate(48 208)" fill="#292f61"/>
    <rect id="Rechteck_39" data-name="Rechteck 39" width="8" height="8" transform="translate(48 224)" fill="#292f61"/>
    <rect id="Rechteck_40" data-name="Rechteck 40" width="8" height="8" transform="translate(56 32)" fill="#292f61"/>
    <rect id="Rechteck_41" data-name="Rechteck 41" width="8" height="8" transform="translate(56 48)" fill="#292f61"/>
    <rect id="Rechteck_42" data-name="Rechteck 42" width="8" height="8" transform="translate(56 56)" fill="#292f61"/>
    <rect id="Rechteck_43" data-name="Rechteck 43" width="8" height="8" transform="translate(56 64)" fill="#292f61"/>
    <rect id="Rechteck_44" data-name="Rechteck 44" width="8" height="8" transform="translate(56 80)" fill="#292f61"/>
    <rect id="Rechteck_45" data-name="Rechteck 45" width="8" height="8" transform="translate(56 96)" fill="#292f61"/>
    <rect id="Rechteck_46" data-name="Rechteck 46" width="8" height="8" transform="translate(56 104)" fill="#292f61"/>
    <rect id="Rechteck_47" data-name="Rechteck 47" width="8" height="8" transform="translate(56 112)" fill="#292f61"/>
    <rect id="Rechteck_48" data-name="Rechteck 48" width="8" height="8" transform="translate(56 128)" fill="#292f61"/>
    <rect id="Rechteck_49" data-name="Rechteck 49" width="8" height="8" transform="translate(56 152)" fill="#292f61"/>
    <rect id="Rechteck_50" data-name="Rechteck 50" width="8" height="8" transform="translate(56 176)" fill="#292f61"/>
    <rect id="Rechteck_51" data-name="Rechteck 51" width="8" height="8" transform="translate(56 192)" fill="#292f61"/>
    <rect id="Rechteck_52" data-name="Rechteck 52" width="8" height="8" transform="translate(56 200)" fill="#292f61"/>
    <rect id="Rechteck_53" data-name="Rechteck 53" width="8" height="8" transform="translate(56 208)" fill="#292f61"/>
    <rect id="Rechteck_54" data-name="Rechteck 54" width="8" height="8" transform="translate(56 224)" fill="#292f61"/>
    <rect id="Rechteck_55" data-name="Rechteck 55" width="8" height="8" transform="translate(64 32)" fill="#292f61"/>
    <rect id="Rechteck_56" data-name="Rechteck 56" width="8" height="8" transform="translate(64 48)" fill="#292f61"/>
    <rect id="Rechteck_57" data-name="Rechteck 57" width="8" height="8" transform="translate(64 56)" fill="#292f61"/>
    <rect id="Rechteck_58" data-name="Rechteck 58" width="8" height="8" transform="translate(64 64)" fill="#292f61"/>
    <rect id="Rechteck_59" data-name="Rechteck 59" width="8" height="8" transform="translate(64 80)" fill="#292f61"/>
    <rect id="Rechteck_60" data-name="Rechteck 60" width="8" height="8" transform="translate(64 104)" fill="#292f61"/>
    <rect id="Rechteck_61" data-name="Rechteck 61" width="8" height="8" transform="translate(64 128)" fill="#292f61"/>
    <rect id="Rechteck_62" data-name="Rechteck 62" width="8" height="8" transform="translate(64 144)" fill="#292f61"/>
    <rect id="Rechteck_63" data-name="Rechteck 63" width="8" height="8" transform="translate(64 152)" fill="#292f61"/>
    <rect id="Rechteck_64" data-name="Rechteck 64" width="8" height="8" transform="translate(64 160)" fill="#292f61"/>
    <rect id="Rechteck_65" data-name="Rechteck 65" width="8" height="8" transform="translate(64 176)" fill="#292f61"/>
    <rect id="Rechteck_66" data-name="Rechteck 66" width="8" height="8" transform="translate(64 192)" fill="#292f61"/>
    <rect id="Rechteck_67" data-name="Rechteck 67" width="8" height="8" transform="translate(64 200)" fill="#292f61"/>
    <rect id="Rechteck_68" data-name="Rechteck 68" width="8" height="8" transform="translate(64 208)" fill="#292f61"/>
    <rect id="Rechteck_69" data-name="Rechteck 69" width="8" height="8" transform="translate(64 224)" fill="#292f61"/>
    <rect id="Rechteck_70" data-name="Rechteck 70" width="8" height="8" transform="translate(72 32)" fill="#292f61"/>
    <rect id="Rechteck_71" data-name="Rechteck 71" width="8" height="8" transform="translate(72 80)" fill="#292f61"/>
    <rect id="Rechteck_72" data-name="Rechteck 72" width="8" height="8" transform="translate(72 120)" fill="#292f61"/>
    <rect id="Rechteck_73" data-name="Rechteck 73" width="8" height="8" transform="translate(72 136)" fill="#292f61"/>
    <rect id="Rechteck_74" data-name="Rechteck 74" width="8" height="8" transform="translate(72 152)" fill="#292f61"/>
    <rect id="Rechteck_75" data-name="Rechteck 75" width="8" height="8" transform="translate(72 160)" fill="#292f61"/>
    <rect id="Rechteck_76" data-name="Rechteck 76" width="8" height="8" transform="translate(72 176)" fill="#292f61"/>
    <rect id="Rechteck_77" data-name="Rechteck 77" width="8" height="8" transform="translate(72 224)" fill="#292f61"/>
    <rect id="Rechteck_78" data-name="Rechteck 78" width="8" height="8" transform="translate(80 32)" fill="#292f61"/>
    <rect id="Rechteck_79" data-name="Rechteck 79" width="8" height="8" transform="translate(80 40)" fill="#292f61"/>
    <rect id="Rechteck_80" data-name="Rechteck 80" width="8" height="8" transform="translate(80 48)" fill="#292f61"/>
    <rect id="Rechteck_81" data-name="Rechteck 81" width="8" height="8" transform="translate(80 56)" fill="#292f61"/>
    <rect id="Rechteck_82" data-name="Rechteck 82" width="8" height="8" transform="translate(80 64)" fill="#292f61"/>
    <rect id="Rechteck_83" data-name="Rechteck 83" width="8" height="8" transform="translate(80 72)" fill="#292f61"/>
    <rect id="Rechteck_84" data-name="Rechteck 84" width="8" height="8" transform="translate(80 80)" fill="#292f61"/>
    <rect id="Rechteck_85" data-name="Rechteck 85" width="8" height="8" transform="translate(80 96)" fill="#292f61"/>
    <rect id="Rechteck_86" data-name="Rechteck 86" width="8" height="8" transform="translate(80 112)" fill="#292f61"/>
    <rect id="Rechteck_87" data-name="Rechteck 87" width="8" height="8" transform="translate(80 128)" fill="#292f61"/>
    <rect id="Rechteck_88" data-name="Rechteck 88" width="8" height="8" transform="translate(80 144)" fill="#292f61"/>
    <rect id="Rechteck_89" data-name="Rechteck 89" width="8" height="8" transform="translate(80 160)" fill="#292f61"/>
    <rect id="Rechteck_90" data-name="Rechteck 90" width="8" height="8" transform="translate(80 176)" fill="#292f61"/>
    <rect id="Rechteck_91" data-name="Rechteck 91" width="8" height="8" transform="translate(80 184)" fill="#292f61"/>
    <rect id="Rechteck_92" data-name="Rechteck 92" width="8" height="8" transform="translate(80 192)" fill="#292f61"/>
    <rect id="Rechteck_93" data-name="Rechteck 93" width="8" height="8" transform="translate(80 200)" fill="#292f61"/>
    <rect id="Rechteck_94" data-name="Rechteck 94" width="8" height="8" transform="translate(80 208)" fill="#292f61"/>
    <rect id="Rechteck_95" data-name="Rechteck 95" width="8" height="8" transform="translate(80 216)" fill="#292f61"/>
    <rect id="Rechteck_96" data-name="Rechteck 96" width="8" height="8" transform="translate(80 224)" fill="#292f61"/>
    <rect id="Rechteck_97" data-name="Rechteck 97" width="8" height="8" transform="translate(88 96)" fill="#292f61"/>
    <rect id="Rechteck_98" data-name="Rechteck 98" width="8" height="8" transform="translate(88 112)" fill="#292f61"/>
    <rect id="Rechteck_99" data-name="Rechteck 99" width="8" height="8" transform="translate(88 144)" fill="#292f61"/>
    <rect id="Rechteck_100" data-name="Rechteck 100" width="8" height="8" transform="translate(96 40)" fill="#292f61"/>
    <rect id="Rechteck_101" data-name="Rechteck 101" width="8" height="8" transform="translate(96 48)" fill="#292f61"/>
    <rect id="Rechteck_102" data-name="Rechteck 102" width="8" height="8" transform="translate(96 64)" fill="#292f61"/>
    <rect id="Rechteck_103" data-name="Rechteck 103" width="8" height="8" transform="translate(96 72)" fill="#292f61"/>
    <rect id="Rechteck_104" data-name="Rechteck 104" width="8" height="8" transform="translate(96 80)" fill="#292f61"/>
    <rect id="Rechteck_105" data-name="Rechteck 105" width="8" height="8" transform="translate(96 88)" fill="#292f61"/>
    <rect id="Rechteck_106" data-name="Rechteck 106" width="8" height="8" transform="translate(96 120)" fill="#292f61"/>
    <rect id="Rechteck_107" data-name="Rechteck 107" width="8" height="8" transform="translate(96 128)" fill="#292f61"/>
    <rect id="Rechteck_108" data-name="Rechteck 108" width="8" height="8" transform="translate(96 136)" fill="#292f61"/>
    <rect id="Rechteck_109" data-name="Rechteck 109" width="8" height="8" transform="translate(96 144)" fill="#292f61"/>
    <rect id="Rechteck_110" data-name="Rechteck 110" width="8" height="8" transform="translate(96 152)" fill="#292f61"/>
    <rect id="Rechteck_111" data-name="Rechteck 111" width="8" height="8" transform="translate(96 168)" fill="#292f61"/>
    <rect id="Rechteck_112" data-name="Rechteck 112" width="8" height="8" transform="translate(96 176)" fill="#292f61"/>
    <rect id="Rechteck_113" data-name="Rechteck 113" width="8" height="8" transform="translate(96 200)" fill="#292f61"/>
    <rect id="Rechteck_114" data-name="Rechteck 114" width="8" height="8" transform="translate(96 216)" fill="#292f61"/>
    <rect id="Rechteck_115" data-name="Rechteck 115" width="8" height="8" transform="translate(96 224)" fill="#292f61"/>
    <rect id="Rechteck_116" data-name="Rechteck 116" width="8" height="8" transform="translate(104 32)" fill="#292f61"/>
    <rect id="Rechteck_117" data-name="Rechteck 117" width="8" height="8" transform="translate(104 48)" fill="#292f61"/>
    <rect id="Rechteck_118" data-name="Rechteck 118" width="8" height="8" transform="translate(104 56)" fill="#292f61"/>
    <rect id="Rechteck_119" data-name="Rechteck 119" width="8" height="8" transform="translate(104 72)" fill="#292f61"/>
    <rect id="Rechteck_120" data-name="Rechteck 120" width="8" height="8" transform="translate(104 88)" fill="#292f61"/>
    <rect id="Rechteck_121" data-name="Rechteck 121" width="8" height="8" transform="translate(104 112)" fill="#292f61"/>
    <rect id="Rechteck_122" data-name="Rechteck 122" width="8" height="8" transform="translate(104 144)" fill="#292f61"/>
    <rect id="Rechteck_123" data-name="Rechteck 123" width="8" height="8" transform="translate(104 152)" fill="#292f61"/>
    <rect id="Rechteck_124" data-name="Rechteck 124" width="8" height="8" transform="translate(104 160)" fill="#292f61"/>
    <rect id="Rechteck_125" data-name="Rechteck 125" width="8" height="8" transform="translate(104 168)" fill="#292f61"/>
    <rect id="Rechteck_126" data-name="Rechteck 126" width="8" height="8" transform="translate(104 184)" fill="#292f61"/>
    <rect id="Rechteck_127" data-name="Rechteck 127" width="8" height="8" transform="translate(104 200)" fill="#292f61"/>
    <rect id="Rechteck_128" data-name="Rechteck 128" width="8" height="8" transform="translate(104 216)" fill="#292f61"/>
    <rect id="Rechteck_129" data-name="Rechteck 129" width="8" height="8" transform="translate(104 224)" fill="#292f61"/>
    <rect id="Rechteck_130" data-name="Rechteck 130" width="8" height="8" transform="translate(112 48)" fill="#292f61"/>
    <rect id="Rechteck_131" data-name="Rechteck 131" width="8" height="8" transform="translate(112 56)" fill="#292f61"/>
    <rect id="Rechteck_132" data-name="Rechteck 132" width="8" height="8" transform="translate(112 80)" fill="#292f61"/>
    <rect id="Rechteck_133" data-name="Rechteck 133" width="8" height="8" transform="translate(112 96)" fill="#292f61"/>
    <rect id="Rechteck_134" data-name="Rechteck 134" width="8" height="8" transform="translate(112 104)" fill="#292f61"/>
    <rect id="Rechteck_135" data-name="Rechteck 135" width="8" height="8" transform="translate(112 112)" fill="#292f61"/>
    <rect id="Rechteck_136" data-name="Rechteck 136" width="8" height="8" transform="translate(112 136)" fill="#292f61"/>
    <rect id="Rechteck_137" data-name="Rechteck 137" width="8" height="8" transform="translate(112 144)" fill="#292f61"/>
    <rect id="Rechteck_138" data-name="Rechteck 138" width="8" height="8" transform="translate(112 152)" fill="#292f61"/>
    <rect id="Rechteck_139" data-name="Rechteck 139" width="8" height="8" transform="translate(112 168)" fill="#292f61"/>
    <rect id="Rechteck_140" data-name="Rechteck 140" width="8" height="8" transform="translate(112 176)" fill="#292f61"/>
    <rect id="Rechteck_141" data-name="Rechteck 141" width="8" height="8" transform="translate(112 192)" fill="#292f61"/>
    <rect id="Rechteck_142" data-name="Rechteck 142" width="8" height="8" transform="translate(112 208)" fill="#292f61"/>
    <rect id="Rechteck_143" data-name="Rechteck 143" width="8" height="8" transform="translate(120 40)" fill="#292f61"/>
    <rect id="Rechteck_144" data-name="Rechteck 144" width="8" height="8" transform="translate(120 48)" fill="#292f61"/>
    <rect id="Rechteck_145" data-name="Rechteck 145" width="8" height="8" transform="translate(120 56)" fill="#292f61"/>
    <rect id="Rechteck_146" data-name="Rechteck 146" width="8" height="8" transform="translate(120 72)" fill="#292f61"/>
    <rect id="Rechteck_147" data-name="Rechteck 147" width="8" height="8" transform="translate(120 104)" fill="#292f61"/>
    <rect id="Rechteck_148" data-name="Rechteck 148" width="8" height="8" transform="translate(120 144)" fill="#292f61"/>
    <rect id="Rechteck_149" data-name="Rechteck 149" width="8" height="8" transform="translate(120 152)" fill="#292f61"/>
    <rect id="Rechteck_150" data-name="Rechteck 150" width="8" height="8" transform="translate(120 168)" fill="#292f61"/>
    <rect id="Rechteck_151" data-name="Rechteck 151" width="8" height="8" transform="translate(120 216)" fill="#292f61"/>
    <rect id="Rechteck_152" data-name="Rechteck 152" width="8" height="8" transform="translate(128 32)" fill="#292f61"/>
    <rect id="Rechteck_153" data-name="Rechteck 153" width="8" height="8" transform="translate(128 40)" fill="#292f61"/>
    <rect id="Rechteck_154" data-name="Rechteck 154" width="8" height="8" transform="translate(128 48)" fill="#292f61"/>
    <rect id="Rechteck_155" data-name="Rechteck 155" width="8" height="8" transform="translate(128 80)" fill="#292f61"/>
    <rect id="Rechteck_156" data-name="Rechteck 156" width="8" height="8" transform="translate(128 88)" fill="#292f61"/>
    <rect id="Rechteck_157" data-name="Rechteck 157" width="8" height="8" transform="translate(128 96)" fill="#292f61"/>
    <rect id="Rechteck_158" data-name="Rechteck 158" width="8" height="8" transform="translate(128 120)" fill="#292f61"/>
    <rect id="Rechteck_159" data-name="Rechteck 159" width="8" height="8" transform="translate(128 128)" fill="#292f61"/>
    <rect id="Rechteck_160" data-name="Rechteck 160" width="8" height="8" transform="translate(128 136)" fill="#292f61"/>
    <rect id="Rechteck_161" data-name="Rechteck 161" width="8" height="8" transform="translate(128 144)" fill="#292f61"/>
    <rect id="Rechteck_162" data-name="Rechteck 162" width="8" height="8" transform="translate(128 152)" fill="#292f61"/>
    <rect id="Rechteck_163" data-name="Rechteck 163" width="8" height="8" transform="translate(128 160)" fill="#292f61"/>
    <rect id="Rechteck_164" data-name="Rechteck 164" width="8" height="8" transform="translate(128 168)" fill="#292f61"/>
    <rect id="Rechteck_165" data-name="Rechteck 165" width="8" height="8" transform="translate(128 176)" fill="#292f61"/>
    <rect id="Rechteck_166" data-name="Rechteck 166" width="8" height="8" transform="translate(128 184)" fill="#292f61"/>
    <rect id="Rechteck_167" data-name="Rechteck 167" width="8" height="8" transform="translate(128 192)" fill="#292f61"/>
    <rect id="Rechteck_168" data-name="Rechteck 168" width="8" height="8" transform="translate(128 208)" fill="#292f61"/>
    <rect id="Rechteck_169" data-name="Rechteck 169" width="8" height="8" transform="translate(128 216)" fill="#292f61"/>
    <rect id="Rechteck_170" data-name="Rechteck 170" width="8" height="8" transform="translate(136 72)" fill="#292f61"/>
    <rect id="Rechteck_171" data-name="Rechteck 171" width="8" height="8" transform="translate(136 96)" fill="#292f61"/>
    <rect id="Rechteck_172" data-name="Rechteck 172" width="8" height="8" transform="translate(136 120)" fill="#292f61"/>
    <rect id="Rechteck_173" data-name="Rechteck 173" width="8" height="8" transform="translate(136 128)" fill="#292f61"/>
    <rect id="Rechteck_174" data-name="Rechteck 174" width="8" height="8" transform="translate(136 136)" fill="#292f61"/>
    <rect id="Rechteck_175" data-name="Rechteck 175" width="8" height="8" transform="translate(136 144)" fill="#292f61"/>
    <rect id="Rechteck_176" data-name="Rechteck 176" width="8" height="8" transform="translate(136 152)" fill="#292f61"/>
    <rect id="Rechteck_177" data-name="Rechteck 177" width="8" height="8" transform="translate(136 192)" fill="#292f61"/>
    <rect id="Rechteck_178" data-name="Rechteck 178" width="8" height="8" transform="translate(136 200)" fill="#292f61"/>
    <rect id="Rechteck_179" data-name="Rechteck 179" width="8" height="8" transform="translate(136 208)" fill="#292f61"/>
    <rect id="Rechteck_180" data-name="Rechteck 180" width="8" height="8" transform="translate(136 216)" fill="#292f61"/>
    <rect id="Rechteck_181" data-name="Rechteck 181" width="8" height="8" transform="translate(136 224)" fill="#292f61"/>
    <rect id="Rechteck_182" data-name="Rechteck 182" width="8" height="8" transform="translate(144 32)" fill="#292f61"/>
    <rect id="Rechteck_183" data-name="Rechteck 183" width="8" height="8" transform="translate(144 48)" fill="#292f61"/>
    <rect id="Rechteck_184" data-name="Rechteck 184" width="8" height="8" transform="translate(144 56)" fill="#292f61"/>
    <rect id="Rechteck_185" data-name="Rechteck 185" width="8" height="8" transform="translate(144 64)" fill="#292f61"/>
    <rect id="Rechteck_186" data-name="Rechteck 186" width="8" height="8" transform="translate(144 80)" fill="#292f61"/>
    <rect id="Rechteck_187" data-name="Rechteck 187" width="8" height="8" transform="translate(144 96)" fill="#292f61"/>
    <rect id="Rechteck_188" data-name="Rechteck 188" width="8" height="8" transform="translate(144 112)" fill="#292f61"/>
    <rect id="Rechteck_189" data-name="Rechteck 189" width="8" height="8" transform="translate(144 144)" fill="#292f61"/>
    <rect id="Rechteck_190" data-name="Rechteck 190" width="8" height="8" transform="translate(144 152)" fill="#292f61"/>
    <rect id="Rechteck_191" data-name="Rechteck 191" width="8" height="8" transform="translate(144 160)" fill="#292f61"/>
    <rect id="Rechteck_192" data-name="Rechteck 192" width="8" height="8" transform="translate(144 168)" fill="#292f61"/>
    <rect id="Rechteck_193" data-name="Rechteck 193" width="8" height="8" transform="translate(144 184)" fill="#292f61"/>
    <rect id="Rechteck_194" data-name="Rechteck 194" width="8" height="8" transform="translate(144 192)" fill="#292f61"/>
    <rect id="Rechteck_195" data-name="Rechteck 195" width="8" height="8" transform="translate(144 200)" fill="#292f61"/>
    <rect id="Rechteck_196" data-name="Rechteck 196" width="8" height="8" transform="translate(144 208)" fill="#292f61"/>
    <rect id="Rechteck_197" data-name="Rechteck 197" width="8" height="8" transform="translate(144 216)" fill="#292f61"/>
    <rect id="Rechteck_198" data-name="Rechteck 198" width="8" height="8" transform="translate(152 32)" fill="#292f61"/>
    <rect id="Rechteck_199" data-name="Rechteck 199" width="8" height="8" transform="translate(152 40)" fill="#292f61"/>
    <rect id="Rechteck_200" data-name="Rechteck 200" width="8" height="8" transform="translate(152 48)" fill="#292f61"/>
    <rect id="Rechteck_201" data-name="Rechteck 201" width="8" height="8" transform="translate(152 56)" fill="#292f61"/>
    <rect id="Rechteck_202" data-name="Rechteck 202" width="8" height="8" transform="translate(152 64)" fill="#292f61"/>
    <rect id="Rechteck_203" data-name="Rechteck 203" width="8" height="8" transform="translate(152 72)" fill="#292f61"/>
    <rect id="Rechteck_204" data-name="Rechteck 204" width="8" height="8" transform="translate(152 96)" fill="#292f61"/>
    <rect id="Rechteck_205" data-name="Rechteck 205" width="8" height="8" transform="translate(152 152)" fill="#292f61"/>
    <rect id="Rechteck_206" data-name="Rechteck 206" width="8" height="8" transform="translate(152 176)" fill="#292f61"/>
    <rect id="Rechteck_207" data-name="Rechteck 207" width="8" height="8" transform="translate(152 208)" fill="#292f61"/>
    <rect id="Rechteck_208" data-name="Rechteck 208" width="8" height="8" transform="translate(152 216)" fill="#292f61"/>
    <rect id="Rechteck_209" data-name="Rechteck 209" width="8" height="8" transform="translate(152 224)" fill="#292f61"/>
    <rect id="Rechteck_210" data-name="Rechteck 210" width="8" height="8" transform="translate(160 40)" fill="#292f61"/>
    <rect id="Rechteck_211" data-name="Rechteck 211" width="8" height="8" transform="translate(160 64)" fill="#292f61"/>
    <rect id="Rechteck_212" data-name="Rechteck 212" width="8" height="8" transform="translate(160 80)" fill="#292f61"/>
    <rect id="Rechteck_213" data-name="Rechteck 213" width="8" height="8" transform="translate(160 96)" fill="#292f61"/>
    <rect id="Rechteck_214" data-name="Rechteck 214" width="8" height="8" transform="translate(160 112)" fill="#292f61"/>
    <rect id="Rechteck_215" data-name="Rechteck 215" width="8" height="8" transform="translate(160 152)" fill="#292f61"/>
    <rect id="Rechteck_216" data-name="Rechteck 216" width="8" height="8" transform="translate(160 160)" fill="#292f61"/>
    <rect id="Rechteck_217" data-name="Rechteck 217" width="8" height="8" transform="translate(160 168)" fill="#292f61"/>
    <rect id="Rechteck_218" data-name="Rechteck 218" width="8" height="8" transform="translate(160 176)" fill="#292f61"/>
    <rect id="Rechteck_219" data-name="Rechteck 219" width="8" height="8" transform="translate(160 184)" fill="#292f61"/>
    <rect id="Rechteck_220" data-name="Rechteck 220" width="8" height="8" transform="translate(160 192)" fill="#292f61"/>
    <rect id="Rechteck_221" data-name="Rechteck 221" width="8" height="8" transform="translate(160 216)" fill="#292f61"/>
    <rect id="Rechteck_222" data-name="Rechteck 222" width="8" height="8" transform="translate(160 224)" fill="#292f61"/>
    <rect id="Rechteck_223" data-name="Rechteck 223" width="8" height="8" transform="translate(168 104)" fill="#292f61"/>
    <rect id="Rechteck_224" data-name="Rechteck 224" width="8" height="8" transform="translate(168 112)" fill="#292f61"/>
    <rect id="Rechteck_225" data-name="Rechteck 225" width="8" height="8" transform="translate(168 120)" fill="#292f61"/>
    <rect id="Rechteck_226" data-name="Rechteck 226" width="8" height="8" transform="translate(168 128)" fill="#292f61"/>
    <rect id="Rechteck_227" data-name="Rechteck 227" width="8" height="8" transform="translate(168 136)" fill="#292f61"/>
    <rect id="Rechteck_228" data-name="Rechteck 228" width="8" height="8" transform="translate(168 160)" fill="#292f61"/>
    <rect id="Rechteck_229" data-name="Rechteck 229" width="8" height="8" transform="translate(168 192)" fill="#292f61"/>
    <rect id="Rechteck_230" data-name="Rechteck 230" width="8" height="8" transform="translate(168 216)" fill="#292f61"/>
    <rect id="Rechteck_231" data-name="Rechteck 231" width="8" height="8" transform="translate(176 32)" fill="#292f61"/>
    <rect id="Rechteck_232" data-name="Rechteck 232" width="8" height="8" transform="translate(176 40)" fill="#292f61"/>
    <rect id="Rechteck_233" data-name="Rechteck 233" width="8" height="8" transform="translate(176 48)" fill="#292f61"/>
    <rect id="Rechteck_234" data-name="Rechteck 234" width="8" height="8" transform="translate(176 56)" fill="#292f61"/>
    <rect id="Rechteck_235" data-name="Rechteck 235" width="8" height="8" transform="translate(176 64)" fill="#292f61"/>
    <rect id="Rechteck_236" data-name="Rechteck 236" width="8" height="8" transform="translate(176 72)" fill="#292f61"/>
    <rect id="Rechteck_237" data-name="Rechteck 237" width="8" height="8" transform="translate(176 80)" fill="#292f61"/>
    <rect id="Rechteck_238" data-name="Rechteck 238" width="8" height="8" transform="translate(176 96)" fill="#292f61"/>
    <rect id="Rechteck_239" data-name="Rechteck 239" width="8" height="8" transform="translate(176 104)" fill="#292f61"/>
    <rect id="Rechteck_240" data-name="Rechteck 240" width="8" height="8" transform="translate(176 128)" fill="#292f61"/>
    <rect id="Rechteck_241" data-name="Rechteck 241" width="8" height="8" transform="translate(176 136)" fill="#292f61"/>
    <rect id="Rechteck_242" data-name="Rechteck 242" width="8" height="8" transform="translate(176 144)" fill="#292f61"/>
    <rect id="Rechteck_243" data-name="Rechteck 243" width="8" height="8" transform="translate(176 160)" fill="#292f61"/>
    <rect id="Rechteck_244" data-name="Rechteck 244" width="8" height="8" transform="translate(176 176)" fill="#292f61"/>
    <rect id="Rechteck_245" data-name="Rechteck 245" width="8" height="8" transform="translate(176 192)" fill="#292f61"/>
    <rect id="Rechteck_246" data-name="Rechteck 246" width="8" height="8" transform="translate(176 224)" fill="#292f61"/>
    <rect id="Rechteck_247" data-name="Rechteck 247" width="8" height="8" transform="translate(184 32)" fill="#292f61"/>
    <rect id="Rechteck_248" data-name="Rechteck 248" width="8" height="8" transform="translate(184 80)" fill="#292f61"/>
    <rect id="Rechteck_249" data-name="Rechteck 249" width="8" height="8" transform="translate(184 96)" fill="#292f61"/>
    <rect id="Rechteck_250" data-name="Rechteck 250" width="8" height="8" transform="translate(184 120)" fill="#292f61"/>
    <rect id="Rechteck_251" data-name="Rechteck 251" width="8" height="8" transform="translate(184 136)" fill="#292f61"/>
    <rect id="Rechteck_252" data-name="Rechteck 252" width="8" height="8" transform="translate(184 144)" fill="#292f61"/>
    <rect id="Rechteck_253" data-name="Rechteck 253" width="8" height="8" transform="translate(184 160)" fill="#292f61"/>
    <rect id="Rechteck_254" data-name="Rechteck 254" width="8" height="8" transform="translate(184 192)" fill="#292f61"/>
    <rect id="Rechteck_255" data-name="Rechteck 255" width="8" height="8" transform="translate(184 200)" fill="#292f61"/>
    <rect id="Rechteck_256" data-name="Rechteck 256" width="8" height="8" transform="translate(184 208)" fill="#292f61"/>
    <rect id="Rechteck_257" data-name="Rechteck 257" width="8" height="8" transform="translate(184 224)" fill="#292f61"/>
    <rect id="Rechteck_258" data-name="Rechteck 258" width="8" height="8" transform="translate(192 32)" fill="#292f61"/>
    <rect id="Rechteck_259" data-name="Rechteck 259" width="8" height="8" transform="translate(192 48)" fill="#292f61"/>
    <rect id="Rechteck_260" data-name="Rechteck 260" width="8" height="8" transform="translate(192 56)" fill="#292f61"/>
    <rect id="Rechteck_261" data-name="Rechteck 261" width="8" height="8" transform="translate(192 64)" fill="#292f61"/>
    <rect id="Rechteck_262" data-name="Rechteck 262" width="8" height="8" transform="translate(192 80)" fill="#292f61"/>
    <rect id="Rechteck_263" data-name="Rechteck 263" width="8" height="8" transform="translate(192 96)" fill="#292f61"/>
    <rect id="Rechteck_264" data-name="Rechteck 264" width="8" height="8" transform="translate(192 112)" fill="#292f61"/>
    <rect id="Rechteck_265" data-name="Rechteck 265" width="8" height="8" transform="translate(192 120)" fill="#292f61"/>
    <rect id="Rechteck_266" data-name="Rechteck 266" width="8" height="8" transform="translate(192 144)" fill="#292f61"/>
    <rect id="Rechteck_267" data-name="Rechteck 267" width="8" height="8" transform="translate(192 152)" fill="#292f61"/>
    <rect id="Rechteck_268" data-name="Rechteck 268" width="8" height="8" transform="translate(192 160)" fill="#292f61"/>
    <rect id="Rechteck_269" data-name="Rechteck 269" width="8" height="8" transform="translate(192 168)" fill="#292f61"/>
    <rect id="Rechteck_270" data-name="Rechteck 270" width="8" height="8" transform="translate(192 176)" fill="#292f61"/>
    <rect id="Rechteck_271" data-name="Rechteck 271" width="8" height="8" transform="translate(192 184)" fill="#292f61"/>
    <rect id="Rechteck_272" data-name="Rechteck 272" width="8" height="8" transform="translate(192 192)" fill="#292f61"/>
    <rect id="Rechteck_273" data-name="Rechteck 273" width="8" height="8" transform="translate(192 200)" fill="#292f61"/>
    <rect id="Rechteck_274" data-name="Rechteck 274" width="8" height="8" transform="translate(192 208)" fill="#292f61"/>
    <rect id="Rechteck_275" data-name="Rechteck 275" width="8" height="8" transform="translate(200 32)" fill="#292f61"/>
    <rect id="Rechteck_276" data-name="Rechteck 276" width="8" height="8" transform="translate(200 48)" fill="#292f61"/>
    <rect id="Rechteck_277" data-name="Rechteck 277" width="8" height="8" transform="translate(200 56)" fill="#292f61"/>
    <rect id="Rechteck_278" data-name="Rechteck 278" width="8" height="8" transform="translate(200 64)" fill="#292f61"/>
    <rect id="Rechteck_279" data-name="Rechteck 279" width="8" height="8" transform="translate(200 80)" fill="#292f61"/>
    <rect id="Rechteck_280" data-name="Rechteck 280" width="8" height="8" transform="translate(200 128)" fill="#292f61"/>
    <rect id="Rechteck_281" data-name="Rechteck 281" width="8" height="8" transform="translate(200 136)" fill="#292f61"/>
    <rect id="Rechteck_282" data-name="Rechteck 282" width="8" height="8" transform="translate(200 160)" fill="#292f61"/>
    <rect id="Rechteck_283" data-name="Rechteck 283" width="8" height="8" transform="translate(200 168)" fill="#292f61"/>
    <rect id="Rechteck_284" data-name="Rechteck 284" width="8" height="8" transform="translate(200 176)" fill="#292f61"/>
    <rect id="Rechteck_285" data-name="Rechteck 285" width="8" height="8" transform="translate(200 184)" fill="#292f61"/>
    <rect id="Rechteck_286" data-name="Rechteck 286" width="8" height="8" transform="translate(200 192)" fill="#292f61"/>
    <rect id="Rechteck_287" data-name="Rechteck 287" width="8" height="8" transform="translate(200 200)" fill="#292f61"/>
    <rect id="Rechteck_288" data-name="Rechteck 288" width="8" height="8" transform="translate(200 216)" fill="#292f61"/>
    <rect id="Rechteck_289" data-name="Rechteck 289" width="8" height="8" transform="translate(208 32)" fill="#292f61"/>
    <rect id="Rechteck_290" data-name="Rechteck 290" width="8" height="8" transform="translate(208 48)" fill="#292f61"/>
    <rect id="Rechteck_291" data-name="Rechteck 291" width="8" height="8" transform="translate(208 56)" fill="#292f61"/>
    <rect id="Rechteck_292" data-name="Rechteck 292" width="8" height="8" transform="translate(208 64)" fill="#292f61"/>
    <rect id="Rechteck_293" data-name="Rechteck 293" width="8" height="8" transform="translate(208 80)" fill="#292f61"/>
    <rect id="Rechteck_294" data-name="Rechteck 294" width="8" height="8" transform="translate(208 96)" fill="#292f61"/>
    <rect id="Rechteck_295" data-name="Rechteck 295" width="8" height="8" transform="translate(208 136)" fill="#292f61"/>
    <rect id="Rechteck_296" data-name="Rechteck 296" width="8" height="8" transform="translate(208 144)" fill="#292f61"/>
    <rect id="Rechteck_297" data-name="Rechteck 297" width="8" height="8" transform="translate(208 160)" fill="#292f61"/>
    <rect id="Rechteck_298" data-name="Rechteck 298" width="8" height="8" transform="translate(208 184)" fill="#292f61"/>
    <rect id="Rechteck_299" data-name="Rechteck 299" width="8" height="8" transform="translate(208 200)" fill="#292f61"/>
    <rect id="Rechteck_300" data-name="Rechteck 300" width="8" height="8" transform="translate(208 208)" fill="#292f61"/>
    <rect id="Rechteck_301" data-name="Rechteck 301" width="8" height="8" transform="translate(216 32)" fill="#292f61"/>
    <rect id="Rechteck_302" data-name="Rechteck 302" width="8" height="8" transform="translate(216 80)" fill="#292f61"/>
    <rect id="Rechteck_303" data-name="Rechteck 303" width="8" height="8" transform="translate(216 96)" fill="#292f61"/>
    <rect id="Rechteck_304" data-name="Rechteck 304" width="8" height="8" transform="translate(216 112)" fill="#292f61"/>
    <rect id="Rechteck_305" data-name="Rechteck 305" width="8" height="8" transform="translate(216 128)" fill="#292f61"/>
    <rect id="Rechteck_306" data-name="Rechteck 306" width="8" height="8" transform="translate(216 152)" fill="#292f61"/>
    <rect id="Rechteck_307" data-name="Rechteck 307" width="8" height="8" transform="translate(216 176)" fill="#292f61"/>
    <rect id="Rechteck_308" data-name="Rechteck 308" width="8" height="8" transform="translate(216 192)" fill="#292f61"/>
    <rect id="Rechteck_309" data-name="Rechteck 309" width="8" height="8" transform="translate(216 224)" fill="#292f61"/>
    <rect id="Rechteck_310" data-name="Rechteck 310" width="8" height="8" transform="translate(224 32)" fill="#292f61"/>
    <rect id="Rechteck_311" data-name="Rechteck 311" width="8" height="8" transform="translate(224 40)" fill="#292f61"/>
    <rect id="Rechteck_312" data-name="Rechteck 312" width="8" height="8" transform="translate(224 48)" fill="#292f61"/>
    <rect id="Rechteck_313" data-name="Rechteck 313" width="8" height="8" transform="translate(224 56)" fill="#292f61"/>
    <rect id="Rechteck_314" data-name="Rechteck 314" width="8" height="8" transform="translate(224 64)" fill="#292f61"/>
    <rect id="Rechteck_315" data-name="Rechteck 315" width="8" height="8" transform="translate(224 72)" fill="#292f61"/>
    <rect id="Rechteck_316" data-name="Rechteck 316" width="8" height="8" transform="translate(224 80)" fill="#292f61"/>
    <rect id="Rechteck_317" data-name="Rechteck 317" width="8" height="8" transform="translate(224 104)" fill="#292f61"/>
    <rect id="Rechteck_318" data-name="Rechteck 318" width="8" height="8" transform="translate(224 112)" fill="#292f61"/>
    <rect id="Rechteck_319" data-name="Rechteck 319" width="8" height="8" transform="translate(224 128)" fill="#292f61"/>
    <rect id="Rechteck_320" data-name="Rechteck 320" width="8" height="8" transform="translate(224 136)" fill="#292f61"/>
    <rect id="Rechteck_321" data-name="Rechteck 321" width="8" height="8" transform="translate(224 144)" fill="#292f61"/>
    <rect id="Rechteck_322" data-name="Rechteck 322" width="8" height="8" transform="translate(224 168)" fill="#292f61"/>
    <rect id="Rechteck_323" data-name="Rechteck 323" width="8" height="8" transform="translate(224 176)" fill="#292f61"/>
    <rect id="Rechteck_324" data-name="Rechteck 324" width="8" height="8" transform="translate(224 184)" fill="#292f61"/>
    <rect id="Rechteck_325" data-name="Rechteck 325" width="8" height="8" transform="translate(224 208)" fill="#292f61"/>
    <rect id="Rechteck_326" data-name="Rechteck 326" width="8" height="8" transform="translate(224 224)" fill="#292f61"/>
  </g>
</svg>
